<svg viewBox="0.00000 0.00000 200.00000 200.00000" xmlns="http://www.w3.org/2000/svg"><path d="M 40.00000 0.00000 h 26.66667 v 13.33333 h -26.66667 z M 133.33333 0.00000 h 13.33333 v 13.33333 h -13.33333 z M 173.33333 0.00000 h 26.66667 v 13.33333 h -26.66667 z M 40.00000 13.33333 h 26.66667 v 13.33333 h -26.66667 z M 80.00000 13.33333 h 40.00000 v 13.33333 h -40.00000 z M 133.33333 13.33333 h 13.33333 v 13.33333 h -13.33333 z M 13.33333 26.66667 h 40.00000 v 13.33333 h -40.00000 z M 120.00000 26.66667 h 13.33333 v 13.33333 h -13.33333 z M 160.00000 26.66667 h 13.33333 v 13.33333 h -13.33333 z M 13.33333 40.00000 h 173.33333 v 13.33333 h -173.33333 z M 0.00000 53.33333 h 26.66667 v 13.33333 h -26.66667 z M 40.00000 53.33333 h 13.33333 v 13.33333 h -13.33333 z M 146.66667 53.33333 h 13.33333 v 13.33333 h -13.33333 z M 40.00000 66.66667 h 13.33333 v 13.33333 h -13.33333 z M 66.66667 66.66667 h 66.66667 v 13.33333 h -66.66667 z M 146.66667 66.66667 h 53.33333 v 13.33333 h -53.33333 z M 0.00000 80.00000 h 53.33333 v 13.33333 h -53.33333 z M 66.66667 80.00000 h 13.33333 v 13.33333 h -13.33333 z M 120.00000 80.00000 h 13.33333 v 13.33333 h -13.33333 z M 146.66667 80.00000 h 13.33333 v 13.33333 h -13.33333 z M 173.33333 80.00000 h 26.66667 v 13.33333 h -26.66667 z M 13.33333 93.33333 h 13.33333 v 13.33333 h -13.33333 z M 40.00000 93.33333 h 13.33333 v 13.33333 h -13.33333 z M 66.66667 93.33333 h 13.33333 v 13.33333 h -13.33333 z M 93.33333 93.33333 h 13.33333 v 13.33333 h -13.33333 z M 120.00000 93.33333 h 13.33333 v 13.33333 h -13.33333 z M 146.66667 93.33333 h 26.66667 v 13.33333 h -26.66667 z M 0.00000 106.66667 h 26.66667 v 13.33333 h -26.66667 z M 40.00000 106.66667 h 13.33333 v 13.33333 h -13.33333 z M 66.66667 106.66667 h 13.33333 v 13.33333 h -13.33333 z M 120.00000 106.66667 h 13.33333 v 13.33333 h -13.33333 z M 146.66667 106.66667 h 13.33333 v 13.33333 h -13.33333 z M 173.33333 106.66667 h 13.33333 v 13.33333 h -13.33333 z M 13.33333 120.00000 h 13.33333 v 13.33333 h -13.33333 z M 40.00000 120.00000 h 13.33333 v 13.33333 h -13.33333 z M 66.66667 120.00000 h 66.66667 v 13.33333 h -66.66667 z M 146.66667 120.00000 h 13.33333 v 13.33333 h -13.33333 z M 186.66667 120.00000 h 13.33333 v 13.33333 h -13.33333 z M 13.33333 133.33333 h 13.33333 v 13.33333 h -13.33333 z M 40.00000 133.33333 h 13.33333 v 13.33333 h -13.33333 z M 146.66667 133.33333 h 13.33333 v 13.33333 h -13.33333 z M 173.33333 133.33333 h 13.33333 v 13.33333 h -13.33333 z M 40.00000 146.66667 h 133.33333 v 13.33333 h -133.33333 z M 186.66667 146.66667 h 13.33333 v 13.33333 h -13.33333 z M 0.00000 160.00000 h 26.66667 v 13.33333 h -26.66667 z M 53.33333 160.00000 h 40.00000 v 13.33333 h -40.00000 z M 106.66667 160.00000 h 40.00000 v 13.33333 h -40.00000 z M 186.66667 160.00000 h 13.33333 v 13.33333 h -13.33333 z M 13.33333 173.33333 h 13.33333 v 13.33333 h -13.33333 z M 53.33333 173.33333 h 13.33333 v 13.33333 h -13.33333 z M 120.00000 173.33333 h 13.33333 v 13.33333 h -13.33333 z M 40.00000 186.66667 h 53.33333 v 13.33333 h -53.33333 z M 106.66667 186.66667 h 13.33333 v 13.33333 h -13.33333 z M 133.33333 186.66667 h 26.66667 v 13.33333 h -26.66667 z M 173.33333 186.66667 h 13.33333 v 13.33333 h -13.33333 z " style="fill: #000000"/><text style="fill: #000000; font-family: &quot;monospace&quot;; font-size: 40.00000px" x="0.00000" y="0.00000"></text></svg>