<svg viewBox="0.00000 0.00000 200.00000 80.00000" xmlns="http://www.w3.org/2000/svg"><path d="M 0.00000 0.00000 h 3.25203 v 64.00000 h -3.25203 z M 4.87805 0.00000 h 1.62602 v 64.00000 h -1.62602 z M 9.75610 0.00000 h 4.87805 v 64.00000 h -4.87805 z M 17.88618 0.00000 h 1.62602 v 64.00000 h -1.62602 z M 21.13821 0.00000 h 3.25203 v 64.00000 h -3.25203 z M 27.64228 0.00000 h 4.87805 v 64.00000 h -4.87805 z M 35.77236 0.00000 h 1.62602 v 64.00000 h -1.62602 z M 42.27642 0.00000 h 1.62602 v 64.00000 h -1.62602 z M 45.52846 0.00000 h 3.25203 v 64.00000 h -3.25203 z M 53.65854 0.00000 h 1.62602 v 64.00000 h -1.62602 z M 56.91057 0.00000 h 6.50407 v 64.00000 h -6.50407 z M 65.04065 0.00000 h 4.87805 v 64.00000 h -4.87805 z M 71.54472 0.00000 h 3.25203 v 64.00000 h -3.25203 z M 76.42276 0.00000 h 4.87805 v 64.00000 h -4.87805 z M 84.55285 0.00000 h 1.62602 v 64.00000 h -1.62602 z M 89.43089 0.00000 h 3.25203 v 64.00000 h -3.25203 z M 94.30894 0.00000 h 3.25203 v 64.00000 h -3.25203 z M 100.81301 0.00000 h 3.25203 v 64.00000 h -3.25203 z M 107.31707 0.00000 h 1.62602 v 64.00000 h -1.62602 z M 115.44715 0.00000 h 3.25203 v 64.00000 h -3.25203 z M 121.95122 0.00000 h 1.62602 v 64.00000 h -1.62602 z M 125.20325 0.00000 h 1.62602 v 64.00000 h -1.62602 z M 130.08130 0.00000 h 3.25203 v 64.00000 h -3.25203 z M 134.95935 0.00000 h 1.62602 v 64.00000 h -1.62602 z M 143.08943 0.00000 h 1.62602 v 64.00000 h -1.62602 z M 146.34146 0.00000 h 3.25203 v 64.00000 h -3.25203 z M 156.09756 0.00000 h 1.62602 v 64.00000 h -1.62602 z M 160.97561 0.00000 h 3.25203 v 64.00000 h -3.25203 z M 167.47967 0.00000 h 1.62602 v 64.00000 h -1.62602 z M 173.98374 0.00000 h 1.62602 v 64.00000 h -1.62602 z M 178.86179 0.00000 h 3.25203 v 64.00000 h -3.25203 z M 186.99187 0.00000 h 4.87805 v 64.00000 h -4.87805 z M 193.49593 0.00000 h 1.62602 v 64.00000 h -1.62602 z M 196.74797 0.00000 h 3.25203 v 64.00000 h -3.25203 z " style="fill: #348721"/><text style="fill: #348721; font-family: &quot;monospace&quot;; font-size: 16.00000px" x="0.00000" y="0.00000"><tspan style="text-anchor: middle" x="100.00000" y="76.00000">12345 jgf</tspan></text></svg>