<svg viewBox="0.00000 0.00000 200.00000 80.00000" xmlns="http://www.w3.org/2000/svg"><path d="M 0.00000 0.00000 h 1.80180 v 64.00000 h -1.80180 z M 3.60360 0.00000 h 3.60360 v 64.00000 h -3.60360 z M 10.81081 0.00000 h 1.80180 v 64.00000 h -1.80180 z M 16.21622 0.00000 h 1.80180 v 64.00000 h -1.80180 z M 19.81982 0.00000 h 1.80180 v 64.00000 h -1.80180 z M 23.42342 0.00000 h 1.80180 v 64.00000 h -1.80180 z M 27.02703 0.00000 h 3.60360 v 64.00000 h -3.60360 z M 34.23423 0.00000 h 1.80180 v 64.00000 h -1.80180 z M 37.83784 0.00000 h 1.80180 v 64.00000 h -1.80180 z M 41.44144 0.00000 h 1.80180 v 64.00000 h -1.80180 z M 46.84685 0.00000 h 1.80180 v 64.00000 h -1.80180 z M 50.45045 0.00000 h 3.60360 v 64.00000 h -3.60360 z M 55.85586 0.00000 h 3.60360 v 64.00000 h -3.60360 z M 63.06306 0.00000 h 1.80180 v 64.00000 h -1.80180 z M 66.66667 0.00000 h 1.80180 v 64.00000 h -1.80180 z M 70.27027 0.00000 h 1.80180 v 64.00000 h -1.80180 z M 73.87387 0.00000 h 1.80180 v 64.00000 h -1.80180 z M 77.47748 0.00000 h 3.60360 v 64.00000 h -3.60360 z M 82.88288 0.00000 h 1.80180 v 64.00000 h -1.80180 z M 88.28829 0.00000 h 1.80180 v 64.00000 h -1.80180 z M 91.89189 0.00000 h 1.80180 v 64.00000 h -1.80180 z M 95.49550 0.00000 h 1.80180 v 64.00000 h -1.80180 z M 100.90090 0.00000 h 3.60360 v 64.00000 h -3.60360 z M 106.30631 0.00000 h 1.80180 v 64.00000 h -1.80180 z M 109.90991 0.00000 h 3.60360 v 64.00000 h -3.60360 z M 115.31532 0.00000 h 1.80180 v 64.00000 h -1.80180 z M 118.91892 0.00000 h 1.80180 v 64.00000 h -1.80180 z M 124.32432 0.00000 h 1.80180 v 64.00000 h -1.80180 z M 127.92793 0.00000 h 1.80180 v 64.00000 h -1.80180 z M 133.33333 0.00000 h 1.80180 v 64.00000 h -1.80180 z M 136.93694 0.00000 h 1.80180 v 64.00000 h -1.80180 z M 140.54054 0.00000 h 3.60360 v 64.00000 h -3.60360 z M 145.94595 0.00000 h 1.80180 v 64.00000 h -1.80180 z M 151.35135 0.00000 h 1.80180 v 64.00000 h -1.80180 z M 154.95495 0.00000 h 3.60360 v 64.00000 h -3.60360 z M 160.36036 0.00000 h 1.80180 v 64.00000 h -1.80180 z M 163.96396 0.00000 h 1.80180 v 64.00000 h -1.80180 z M 169.36937 0.00000 h 3.60360 v 64.00000 h -3.60360 z M 174.77477 0.00000 h 1.80180 v 64.00000 h -1.80180 z M 178.37838 0.00000 h 1.80180 v 64.00000 h -1.80180 z M 181.98198 0.00000 h 1.80180 v 64.00000 h -1.80180 z M 187.38739 0.00000 h 1.80180 v 64.00000 h -1.80180 z M 192.79279 0.00000 h 1.80180 v 64.00000 h -1.80180 z M 196.39640 0.00000 h 3.60360 v 64.00000 h -3.60360 z " style="fill: #000000"/><text style="fill: #000000; font-family: &quot;monospace&quot;; font-size: 16.00000px" x="0.00000" y="0.00000"><tspan style="text-anchor: middle" x="100.00000" y="76.00000">1234-5678</tspan></text></svg>