<svg viewBox="0.00000 0.00000 200.00000 80.00000" xmlns="http://www.w3.org/2000/svg"><path d="M 0.00000 0.00000 h 4.44444 v 60.00000 h -4.44444 z M 6.66667 0.00000 h 2.22222 v 60.00000 h -2.22222 z M 13.33333 0.00000 h 6.66667 v 60.00000 h -6.66667 z M 24.44444 0.00000 h 4.44444 v 60.00000 h -4.44444 z M 33.33333 0.00000 h 4.44444 v 60.00000 h -4.44444 z M 40.00000 0.00000 h 4.44444 v 60.00000 h -4.44444 z M 48.88889 0.00000 h 6.66667 v 60.00000 h -6.66667 z M 57.77778 0.00000 h 4.44444 v 60.00000 h -4.44444 z M 64.44444 0.00000 h 6.66667 v 60.00000 h -6.66667 z M 73.33333 0.00000 h 2.22222 v 60.00000 h -2.22222 z M 77.77778 0.00000 h 6.66667 v 60.00000 h -6.66667 z M 86.66667 0.00000 h 4.44444 v 60.00000 h -4.44444 z M 97.77778 0.00000 h 2.22222 v 60.00000 h -2.22222 z M 108.88889 0.00000 h 2.22222 v 60.00000 h -2.22222 z M 113.33333 0.00000 h 4.44444 v 60.00000 h -4.44444 z M 122.22222 0.00000 h 4.44444 v 60.00000 h -4.44444 z M 128.88889 0.00000 h 4.44444 v 60.00000 h -4.44444 z M 135.55556 0.00000 h 8.88889 v 60.00000 h -8.88889 z M 146.66667 0.00000 h 2.22222 v 60.00000 h -2.22222 z M 157.77778 0.00000 h 4.44444 v 60.00000 h -4.44444 z M 164.44444 0.00000 h 2.22222 v 60.00000 h -2.22222 z M 171.11111 0.00000 h 4.44444 v 60.00000 h -4.44444 z M 182.22222 0.00000 h 6.66667 v 60.00000 h -6.66667 z M 191.11111 0.00000 h 2.22222 v 60.00000 h -2.22222 z M 195.55556 0.00000 h 4.44444 v 60.00000 h -4.44444 z " style="fill: #000000"/><text style="fill: #000000; font-family: &quot;monospace&quot;; font-size: 16.00000px" x="0.00000" y="0.00000"><tspan style="text-anchor: middle" x="100.00000" y="76.00000">0123456789</tspan></text></svg>