<svg viewBox="0.00000 0.00000 200.00000 80.00000" xmlns="http://www.w3.org/2000/svg"><path d="M 0.00000 0.00000 h 2.56410 v 60.00000 h -2.56410 z M 3.84615 0.00000 h 1.28205 v 60.00000 h -1.28205 z M 7.69231 0.00000 h 1.28205 v 60.00000 h -1.28205 z M 14.10256 0.00000 h 1.28205 v 60.00000 h -1.28205 z M 19.23077 0.00000 h 1.28205 v 60.00000 h -1.28205 z M 21.79487 0.00000 h 2.56410 v 60.00000 h -2.56410 z M 28.20513 0.00000 h 1.28205 v 60.00000 h -1.28205 z M 32.05128 0.00000 h 1.28205 v 60.00000 h -1.28205 z M 34.61538 0.00000 h 2.56410 v 60.00000 h -2.56410 z M 42.30769 0.00000 h 1.28205 v 60.00000 h -1.28205 z M 46.15385 0.00000 h 1.28205 v 60.00000 h -1.28205 z M 50.00000 0.00000 h 5.12821 v 60.00000 h -5.12821 z M 56.41026 0.00000 h 1.28205 v 60.00000 h -1.28205 z M 62.82051 0.00000 h 1.28205 v 60.00000 h -1.28205 z M 65.38462 0.00000 h 2.56410 v 60.00000 h -2.56410 z M 70.51282 0.00000 h 1.28205 v 60.00000 h -1.28205 z M 75.64103 0.00000 h 5.12821 v 60.00000 h -5.12821 z M 82.05128 0.00000 h 1.28205 v 60.00000 h -1.28205 z M 84.61538 0.00000 h 1.28205 v 60.00000 h -1.28205 z M 91.02564 0.00000 h 1.28205 v 60.00000 h -1.28205 z M 94.87179 0.00000 h 2.56410 v 60.00000 h -2.56410 z M 98.71795 0.00000 h 1.28205 v 60.00000 h -1.28205 z M 101.28205 0.00000 h 2.56410 v 60.00000 h -2.56410 z M 106.41026 0.00000 h 1.28205 v 60.00000 h -1.28205 z M 112.82051 0.00000 h 2.56410 v 60.00000 h -2.56410 z M 116.66667 0.00000 h 2.56410 v 60.00000 h -2.56410 z M 121.79487 0.00000 h 2.56410 v 60.00000 h -2.56410 z M 126.92308 0.00000 h 1.28205 v 60.00000 h -1.28205 z M 130.76923 0.00000 h 3.84615 v 60.00000 h -3.84615 z M 137.17949 0.00000 h 2.56410 v 60.00000 h -2.56410 z M 141.02564 0.00000 h 2.56410 v 60.00000 h -2.56410 z M 146.15385 0.00000 h 3.84615 v 60.00000 h -3.84615 z M 152.56410 0.00000 h 1.28205 v 60.00000 h -1.28205 z M 155.12821 0.00000 h 3.84615 v 60.00000 h -3.84615 z M 160.25641 0.00000 h 1.28205 v 60.00000 h -1.28205 z M 164.10256 0.00000 h 2.56410 v 60.00000 h -2.56410 z M 169.23077 0.00000 h 2.56410 v 60.00000 h -2.56410 z M 173.07692 0.00000 h 5.12821 v 60.00000 h -5.12821 z M 179.48718 0.00000 h 2.56410 v 60.00000 h -2.56410 z M 183.33333 0.00000 h 2.56410 v 60.00000 h -2.56410 z M 189.74359 0.00000 h 3.84615 v 60.00000 h -3.84615 z M 194.87179 0.00000 h 1.28205 v 60.00000 h -1.28205 z M 197.43590 0.00000 h 2.56410 v 60.00000 h -2.56410 z " style="fill: #000000"/><text style="fill: #000000; font-family: &quot;monospace&quot;; font-size: 16.00000px" x="0.00000" y="0.00000"><tspan style="text-anchor: middle" x="100.00000" y="76.00000">Barcode 128</tspan></text></svg>