<svg viewBox="0.00000 0.00000 200.00000 80.00000" xmlns="http://www.w3.org/2000/svg"><path d="M 0.00000 0.00000 h 1.70940 v 60.00000 h -1.70940 z M 5.12821 0.00000 h 1.70940 v 60.00000 h -1.70940 z M 8.54701 0.00000 h 3.41880 v 60.00000 h -3.41880 z M 13.67521 0.00000 h 3.41880 v 60.00000 h -3.41880 z M 18.80342 0.00000 h 1.70940 v 60.00000 h -1.70940 z M 22.22222 0.00000 h 3.41880 v 60.00000 h -3.41880 z M 27.35043 0.00000 h 3.41880 v 60.00000 h -3.41880 z M 32.47863 0.00000 h 1.70940 v 60.00000 h -1.70940 z M 37.60684 0.00000 h 1.70940 v 60.00000 h -1.70940 z M 41.02564 0.00000 h 1.70940 v 60.00000 h -1.70940 z M 44.44444 0.00000 h 3.41880 v 60.00000 h -3.41880 z M 49.57265 0.00000 h 1.70940 v 60.00000 h -1.70940 z M 52.99145 0.00000 h 3.41880 v 60.00000 h -3.41880 z M 58.11966 0.00000 h 1.70940 v 60.00000 h -1.70940 z M 63.24786 0.00000 h 1.70940 v 60.00000 h -1.70940 z M 66.66667 0.00000 h 1.70940 v 60.00000 h -1.70940 z M 70.08547 0.00000 h 1.70940 v 60.00000 h -1.70940 z M 73.50427 0.00000 h 3.41880 v 60.00000 h -3.41880 z M 80.34188 0.00000 h 1.70940 v 60.00000 h -1.70940 z M 83.76068 0.00000 h 3.41880 v 60.00000 h -3.41880 z M 88.88889 0.00000 h 3.41880 v 60.00000 h -3.41880 z M 94.01709 0.00000 h 1.70940 v 60.00000 h -1.70940 z M 97.43590 0.00000 h 3.41880 v 60.00000 h -3.41880 z M 104.27350 0.00000 h 1.70940 v 60.00000 h -1.70940 z M 107.69231 0.00000 h 1.70940 v 60.00000 h -1.70940 z M 111.11111 0.00000 h 1.70940 v 60.00000 h -1.70940 z M 116.23932 0.00000 h 3.41880 v 60.00000 h -3.41880 z M 121.36752 0.00000 h 1.70940 v 60.00000 h -1.70940 z M 124.78632 0.00000 h 3.41880 v 60.00000 h -3.41880 z M 129.91453 0.00000 h 1.70940 v 60.00000 h -1.70940 z M 133.33333 0.00000 h 3.41880 v 60.00000 h -3.41880 z M 138.46154 0.00000 h 3.41880 v 60.00000 h -3.41880 z M 145.29915 0.00000 h 1.70940 v 60.00000 h -1.70940 z M 148.71795 0.00000 h 1.70940 v 60.00000 h -1.70940 z M 152.13675 0.00000 h 1.70940 v 60.00000 h -1.70940 z M 155.55556 0.00000 h 1.70940 v 60.00000 h -1.70940 z M 158.97436 0.00000 h 3.41880 v 60.00000 h -3.41880 z M 165.81197 0.00000 h 1.70940 v 60.00000 h -1.70940 z M 169.23077 0.00000 h 3.41880 v 60.00000 h -3.41880 z M 174.35897 0.00000 h 1.70940 v 60.00000 h -1.70940 z M 177.77778 0.00000 h 1.70940 v 60.00000 h -1.70940 z M 182.90598 0.00000 h 1.70940 v 60.00000 h -1.70940 z M 186.32479 0.00000 h 3.41880 v 60.00000 h -3.41880 z M 191.45299 0.00000 h 3.41880 v 60.00000 h -3.41880 z M 196.58120 0.00000 h 1.70940 v 60.00000 h -1.70940 z " style="fill: #000000"/><text style="fill: #000000; font-family: &quot;monospace&quot;; font-size: 16.00000px" x="0.00000" y="0.00000"><tspan style="text-anchor: middle" x="11.11111" y="76.00000">*</tspan><tspan style="text-anchor: middle" x="33.33333" y="76.00000">C</tspan><tspan style="text-anchor: middle" x="55.55556" y="76.00000">O</tspan><tspan style="text-anchor: middle" x="77.77778" y="76.00000">D</tspan><tspan style="text-anchor: middle" x="100.00000" y="76.00000">E</tspan><tspan style="text-anchor: middle" x="122.22222" y="76.00000"> </tspan><tspan style="text-anchor: middle" x="144.44444" y="76.00000">3</tspan><tspan style="text-anchor: middle" x="166.66667" y="76.00000">9</tspan><tspan style="text-anchor: middle" x="188.88889" y="76.00000">*</tspan></text></svg>