<svg viewBox="0.00000 0.00000 200.00000 80.00000" xmlns="http://www.w3.org/2000/svg"><path d="M 0.00000 0.00000 h 2.00000 v 64.00000 h -2.00000 z M 4.00000 0.00000 h 2.00000 v 64.00000 h -2.00000 z M 8.00000 0.00000 h 8.00000 v 64.00000 h -8.00000 z M 18.00000 0.00000 h 4.00000 v 64.00000 h -4.00000 z M 24.00000 0.00000 h 2.00000 v 64.00000 h -2.00000 z M 32.00000 0.00000 h 2.00000 v 64.00000 h -2.00000 z M 36.00000 0.00000 h 2.00000 v 64.00000 h -2.00000 z M 42.00000 0.00000 h 2.00000 v 64.00000 h -2.00000 z M 46.00000 0.00000 h 4.00000 v 64.00000 h -4.00000 z M 54.00000 0.00000 h 4.00000 v 64.00000 h -4.00000 z M 62.00000 0.00000 h 2.00000 v 64.00000 h -2.00000 z M 66.00000 0.00000 h 2.00000 v 64.00000 h -2.00000 z M 72.00000 0.00000 h 4.00000 v 64.00000 h -4.00000 z M 80.00000 0.00000 h 2.00000 v 64.00000 h -2.00000 z M 86.00000 0.00000 h 2.00000 v 64.00000 h -2.00000 z M 90.00000 0.00000 h 6.00000 v 64.00000 h -6.00000 z M 98.00000 0.00000 h 2.00000 v 64.00000 h -2.00000 z M 104.00000 0.00000 h 2.00000 v 64.00000 h -2.00000 z M 108.00000 0.00000 h 2.00000 v 64.00000 h -2.00000 z M 118.00000 0.00000 h 2.00000 v 64.00000 h -2.00000 z M 122.00000 0.00000 h 2.00000 v 64.00000 h -2.00000 z M 126.00000 0.00000 h 2.00000 v 64.00000 h -2.00000 z M 130.00000 0.00000 h 2.00000 v 64.00000 h -2.00000 z M 140.00000 0.00000 h 2.00000 v 64.00000 h -2.00000 z M 144.00000 0.00000 h 4.00000 v 64.00000 h -4.00000 z M 152.00000 0.00000 h 2.00000 v 64.00000 h -2.00000 z M 158.00000 0.00000 h 2.00000 v 64.00000 h -2.00000 z M 162.00000 0.00000 h 2.00000 v 64.00000 h -2.00000 z M 170.00000 0.00000 h 2.00000 v 64.00000 h -2.00000 z M 174.00000 0.00000 h 2.00000 v 64.00000 h -2.00000 z M 180.00000 0.00000 h 2.00000 v 64.00000 h -2.00000 z M 184.00000 0.00000 h 2.00000 v 64.00000 h -2.00000 z M 188.00000 0.00000 h 8.00000 v 64.00000 h -8.00000 z M 198.00000 0.00000 h 2.00000 v 64.00000 h -2.00000 z " style="fill: #000000"/><text style="fill: #000000; font-family: &quot;monospace&quot;; font-size: 16.00000px" x="0.00000" y="0.00000"><tspan style="text-anchor: middle" x="100.00000" y="76.00000">CODE 93</tspan></text></svg>