<svg viewBox="0.00000 0.00000 200.00000 80.00000" xmlns="http://www.w3.org/2000/svg"><path d="M 60.00000 0.00000 h 5.00000 v 5.00000 h -5.00000 z M 70.00000 0.00000 h 5.00000 v 5.00000 h -5.00000 z M 80.00000 0.00000 h 5.00000 v 5.00000 h -5.00000 z M 90.00000 0.00000 h 5.00000 v 5.00000 h -5.00000 z M 100.00000 0.00000 h 5.00000 v 5.00000 h -5.00000 z M 110.00000 0.00000 h 5.00000 v 5.00000 h -5.00000 z M 120.00000 0.00000 h 5.00000 v 5.00000 h -5.00000 z M 130.00000 0.00000 h 5.00000 v 5.00000 h -5.00000 z M 60.00000 5.00000 h 5.00000 v 5.00000 h -5.00000 z M 70.00000 5.00000 h 10.00000 v 5.00000 h -10.00000 z M 85.00000 5.00000 h 10.00000 v 5.00000 h -10.00000 z M 110.00000 5.00000 h 10.00000 v 5.00000 h -10.00000 z M 130.00000 5.00000 h 10.00000 v 5.00000 h -10.00000 z M 60.00000 10.00000 h 10.00000 v 5.00000 h -10.00000 z M 85.00000 10.00000 h 5.00000 v 5.00000 h -5.00000 z M 95.00000 10.00000 h 5.00000 v 5.00000 h -5.00000 z M 105.00000 10.00000 h 5.00000 v 5.00000 h -5.00000 z M 130.00000 10.00000 h 5.00000 v 5.00000 h -5.00000 z M 60.00000 15.00000 h 5.00000 v 5.00000 h -5.00000 z M 70.00000 15.00000 h 5.00000 v 5.00000 h -5.00000 z M 80.00000 15.00000 h 5.00000 v 5.00000 h -5.00000 z M 90.00000 15.00000 h 10.00000 v 5.00000 h -10.00000 z M 115.00000 15.00000 h 5.00000 v 5.00000 h -5.00000 z M 125.00000 15.00000 h 15.00000 v 5.00000 h -15.00000 z M 60.00000 20.00000 h 5.00000 v 5.00000 h -5.00000 z M 75.00000 20.00000 h 15.00000 v 5.00000 h -15.00000 z M 100.00000 20.00000 h 5.00000 v 5.00000 h -5.00000 z M 120.00000 20.00000 h 10.00000 v 5.00000 h -10.00000 z M 60.00000 25.00000 h 15.00000 v 5.00000 h -15.00000 z M 85.00000 25.00000 h 5.00000 v 5.00000 h -5.00000 z M 100.00000 25.00000 h 20.00000 v 5.00000 h -20.00000 z M 130.00000 25.00000 h 10.00000 v 5.00000 h -10.00000 z M 60.00000 30.00000 h 10.00000 v 5.00000 h -10.00000 z M 75.00000 30.00000 h 5.00000 v 5.00000 h -5.00000 z M 110.00000 30.00000 h 5.00000 v 5.00000 h -5.00000 z M 60.00000 35.00000 h 10.00000 v 5.00000 h -10.00000 z M 80.00000 35.00000 h 5.00000 v 5.00000 h -5.00000 z M 95.00000 35.00000 h 20.00000 v 5.00000 h -20.00000 z M 120.00000 35.00000 h 10.00000 v 5.00000 h -10.00000 z M 135.00000 35.00000 h 5.00000 v 5.00000 h -5.00000 z M 60.00000 40.00000 h 5.00000 v 5.00000 h -5.00000 z M 70.00000 40.00000 h 20.00000 v 5.00000 h -20.00000 z M 100.00000 40.00000 h 10.00000 v 5.00000 h -10.00000 z M 120.00000 40.00000 h 5.00000 v 5.00000 h -5.00000 z M 60.00000 45.00000 h 5.00000 v 5.00000 h -5.00000 z M 70.00000 45.00000 h 5.00000 v 5.00000 h -5.00000 z M 85.00000 45.00000 h 5.00000 v 5.00000 h -5.00000 z M 105.00000 45.00000 h 15.00000 v 5.00000 h -15.00000 z M 130.00000 45.00000 h 10.00000 v 5.00000 h -10.00000 z M 60.00000 50.00000 h 10.00000 v 5.00000 h -10.00000 z M 75.00000 50.00000 h 5.00000 v 5.00000 h -5.00000 z M 90.00000 50.00000 h 5.00000 v 5.00000 h -5.00000 z M 105.00000 50.00000 h 5.00000 v 5.00000 h -5.00000 z M 115.00000 50.00000 h 5.00000 v 5.00000 h -5.00000 z M 130.00000 50.00000 h 5.00000 v 5.00000 h -5.00000 z M 60.00000 55.00000 h 5.00000 v 5.00000 h -5.00000 z M 70.00000 55.00000 h 5.00000 v 5.00000 h -5.00000 z M 80.00000 55.00000 h 5.00000 v 5.00000 h -5.00000 z M 90.00000 55.00000 h 5.00000 v 5.00000 h -5.00000 z M 100.00000 55.00000 h 5.00000 v 5.00000 h -5.00000 z M 130.00000 55.00000 h 10.00000 v 5.00000 h -10.00000 z M 60.00000 60.00000 h 5.00000 v 5.00000 h -5.00000 z M 70.00000 60.00000 h 20.00000 v 5.00000 h -20.00000 z M 110.00000 60.00000 h 5.00000 v 5.00000 h -5.00000 z M 125.00000 60.00000 h 5.00000 v 5.00000 h -5.00000 z M 60.00000 65.00000 h 10.00000 v 5.00000 h -10.00000 z M 75.00000 65.00000 h 5.00000 v 5.00000 h -5.00000 z M 90.00000 65.00000 h 15.00000 v 5.00000 h -15.00000 z M 110.00000 65.00000 h 5.00000 v 5.00000 h -5.00000 z M 120.00000 65.00000 h 10.00000 v 5.00000 h -10.00000 z M 135.00000 65.00000 h 5.00000 v 5.00000 h -5.00000 z M 60.00000 70.00000 h 15.00000 v 5.00000 h -15.00000 z M 85.00000 70.00000 h 10.00000 v 5.00000 h -10.00000 z M 105.00000 70.00000 h 15.00000 v 5.00000 h -15.00000 z M 130.00000 70.00000 h 5.00000 v 5.00000 h -5.00000 z M 60.00000 75.00000 h 80.00000 v 5.00000 h -80.00000 z " style="fill: #000000"/><text style="fill: #000000; font-family: &quot;monospace&quot;; font-size: 16.00000px" x="0.00000" y="0.00000"></text></svg>