<svg viewBox="0.00000 0.00000 200.00000 200.00000" xmlns="http://www.w3.org/2000/svg"><path d="M 0.00000 0.00000 h 12.50000 v 12.50000 h -12.50000 z M 25.00000 0.00000 h 12.50000 v 12.50000 h -12.50000 z M 50.00000 0.00000 h 12.50000 v 12.50000 h -12.50000 z M 75.00000 0.00000 h 12.50000 v 12.50000 h -12.50000 z M 100.00000 0.00000 h 12.50000 v 12.50000 h -12.50000 z M 125.00000 0.00000 h 12.50000 v 12.50000 h -12.50000 z M 150.00000 0.00000 h 12.50000 v 12.50000 h -12.50000 z M 175.00000 0.00000 h 12.50000 v 12.50000 h -12.50000 z M 0.00000 12.50000 h 12.50000 v 12.50000 h -12.50000 z M 25.00000 12.50000 h 25.00000 v 12.50000 h -25.00000 z M 62.50000 12.50000 h 25.00000 v 12.50000 h -25.00000 z M 125.00000 12.50000 h 25.00000 v 12.50000 h -25.00000 z M 175.00000 12.50000 h 25.00000 v 12.50000 h -25.00000 z M 0.00000 25.00000 h 25.00000 v 12.50000 h -25.00000 z M 62.50000 25.00000 h 12.50000 v 12.50000 h -12.50000 z M 87.50000 25.00000 h 12.50000 v 12.50000 h -12.50000 z M 112.50000 25.00000 h 12.50000 v 12.50000 h -12.50000 z M 175.00000 25.00000 h 12.50000 v 12.50000 h -12.50000 z M 0.00000 37.50000 h 12.50000 v 12.50000 h -12.50000 z M 25.00000 37.50000 h 12.50000 v 12.50000 h -12.50000 z M 50.00000 37.50000 h 12.50000 v 12.50000 h -12.50000 z M 75.00000 37.50000 h 25.00000 v 12.50000 h -25.00000 z M 137.50000 37.50000 h 12.50000 v 12.50000 h -12.50000 z M 162.50000 37.50000 h 37.50000 v 12.50000 h -37.50000 z M 0.00000 50.00000 h 12.50000 v 12.50000 h -12.50000 z M 37.50000 50.00000 h 37.50000 v 12.50000 h -37.50000 z M 100.00000 50.00000 h 12.50000 v 12.50000 h -12.50000 z M 150.00000 50.00000 h 25.00000 v 12.50000 h -25.00000 z M 0.00000 62.50000 h 37.50000 v 12.50000 h -37.50000 z M 62.50000 62.50000 h 12.50000 v 12.50000 h -12.50000 z M 100.00000 62.50000 h 50.00000 v 12.50000 h -50.00000 z M 175.00000 62.50000 h 25.00000 v 12.50000 h -25.00000 z M 0.00000 75.00000 h 25.00000 v 12.50000 h -25.00000 z M 37.50000 75.00000 h 12.50000 v 12.50000 h -12.50000 z M 125.00000 75.00000 h 12.50000 v 12.50000 h -12.50000 z M 0.00000 87.50000 h 25.00000 v 12.50000 h -25.00000 z M 50.00000 87.50000 h 12.50000 v 12.50000 h -12.50000 z M 87.50000 87.50000 h 50.00000 v 12.50000 h -50.00000 z M 150.00000 87.50000 h 25.00000 v 12.50000 h -25.00000 z M 187.50000 87.50000 h 12.50000 v 12.50000 h -12.50000 z M 0.00000 100.00000 h 12.50000 v 12.50000 h -12.50000 z M 25.00000 100.00000 h 50.00000 v 12.50000 h -50.00000 z M 100.00000 100.00000 h 25.00000 v 12.50000 h -25.00000 z M 150.00000 100.00000 h 12.50000 v 12.50000 h -12.50000 z M 0.00000 112.50000 h 12.50000 v 12.50000 h -12.50000 z M 25.00000 112.50000 h 12.50000 v 12.50000 h -12.50000 z M 62.50000 112.50000 h 12.50000 v 12.50000 h -12.50000 z M 112.50000 112.50000 h 37.50000 v 12.50000 h -37.50000 z M 175.00000 112.50000 h 25.00000 v 12.50000 h -25.00000 z M 0.00000 125.00000 h 25.00000 v 12.50000 h -25.00000 z M 37.50000 125.00000 h 12.50000 v 12.50000 h -12.50000 z M 75.00000 125.00000 h 12.50000 v 12.50000 h -12.50000 z M 112.50000 125.00000 h 12.50000 v 12.50000 h -12.50000 z M 137.50000 125.00000 h 12.50000 v 12.50000 h -12.50000 z M 175.00000 125.00000 h 12.50000 v 12.50000 h -12.50000 z M 0.00000 137.50000 h 12.50000 v 12.50000 h -12.50000 z M 25.00000 137.50000 h 12.50000 v 12.50000 h -12.50000 z M 50.00000 137.50000 h 12.50000 v 12.50000 h -12.50000 z M 75.00000 137.50000 h 12.50000 v 12.50000 h -12.50000 z M 100.00000 137.50000 h 12.50000 v 12.50000 h -12.50000 z M 175.00000 137.50000 h 25.00000 v 12.50000 h -25.00000 z M 0.00000 150.00000 h 12.50000 v 12.50000 h -12.50000 z M 25.00000 150.00000 h 50.00000 v 12.50000 h -50.00000 z M 125.00000 150.00000 h 12.50000 v 12.50000 h -12.50000 z M 162.50000 150.00000 h 12.50000 v 12.50000 h -12.50000 z M 0.00000 162.50000 h 25.00000 v 12.50000 h -25.00000 z M 37.50000 162.50000 h 12.50000 v 12.50000 h -12.50000 z M 75.00000 162.50000 h 37.50000 v 12.50000 h -37.50000 z M 125.00000 162.50000 h 12.50000 v 12.50000 h -12.50000 z M 150.00000 162.50000 h 25.00000 v 12.50000 h -25.00000 z M 187.50000 162.50000 h 12.50000 v 12.50000 h -12.50000 z M 0.00000 175.00000 h 37.50000 v 12.50000 h -37.50000 z M 62.50000 175.00000 h 25.00000 v 12.50000 h -25.00000 z M 112.50000 175.00000 h 37.50000 v 12.50000 h -37.50000 z M 175.00000 175.00000 h 12.50000 v 12.50000 h -12.50000 z M 0.00000 187.50000 h 200.00000 v 12.50000 h -200.00000 z " style="fill: #000000"/><text style="fill: #000000; font-family: &quot;monospace&quot;; font-size: 40.00000px" x="0.00000" y="0.00000"></text></svg>