<svg viewBox="0.00000 0.00000 60.00000 80.00000" xmlns="http://www.w3.org/2000/svg"><path d="M 1.25000 20.00000 h 1.25000 v 60.00000 h -1.25000 z M 3.75000 20.00000 h 2.50000 v 60.00000 h -2.50000 z M 7.50000 20.00000 h 3.75000 v 60.00000 h -3.75000 z M 13.75000 20.00000 h 1.25000 v 60.00000 h -1.25000 z M 16.25000 20.00000 h 1.25000 v 60.00000 h -1.25000 z M 20.00000 20.00000 h 1.25000 v 60.00000 h -1.25000 z M 23.75000 20.00000 h 2.50000 v 60.00000 h -2.50000 z M 27.50000 20.00000 h 1.25000 v 60.00000 h -1.25000 z M 31.25000 20.00000 h 3.75000 v 60.00000 h -3.75000 z M 36.25000 20.00000 h 1.25000 v 60.00000 h -1.25000 z M 38.75000 20.00000 h 1.25000 v 60.00000 h -1.25000 z M 43.75000 20.00000 h 1.25000 v 60.00000 h -1.25000 z M 46.25000 20.00000 h 2.50000 v 60.00000 h -2.50000 z M 50.00000 20.00000 h 1.25000 v 60.00000 h -1.25000 z M 52.50000 20.00000 h 2.50000 v 60.00000 h -2.50000 z M 58.75000 20.00000 h 1.25000 v 60.00000 h -1.25000 z " style="fill: #000000"/><text style="fill: #000000; font-family: &quot;monospace&quot;; font-size: 16.00000px" x="0.00000" y="0.00000"><tspan style="text-anchor: middle" x="30.00000" y="12.00000">52495</tspan></text></svg>