<svg viewBox="0.00000 0.00000 100.00000 80.00000" xmlns="http://www.w3.org/2000/svg"><path d="M 0.00000 0.00000 h 1.49254 v 72.00000 h -1.49254 z M 2.98507 0.00000 h 1.49254 v 72.00000 h -1.49254 z M 8.95522 0.00000 h 1.49254 v 64.00000 h -1.49254 z M 11.94030 0.00000 h 2.98507 v 64.00000 h -2.98507 z M 16.41791 0.00000 h 1.49254 v 64.00000 h -1.49254 z M 19.40299 0.00000 h 5.97015 v 64.00000 h -5.97015 z M 26.86567 0.00000 h 5.97015 v 64.00000 h -5.97015 z M 34.32836 0.00000 h 1.49254 v 64.00000 h -1.49254 z M 37.31343 0.00000 h 2.98507 v 64.00000 h -2.98507 z M 41.79104 0.00000 h 4.47761 v 64.00000 h -4.47761 z M 47.76119 0.00000 h 1.49254 v 72.00000 h -1.49254 z M 50.74627 0.00000 h 1.49254 v 72.00000 h -1.49254 z M 53.73134 0.00000 h 1.49254 v 64.00000 h -1.49254 z M 58.20896 0.00000 h 4.47761 v 64.00000 h -4.47761 z M 64.17910 0.00000 h 4.47761 v 64.00000 h -4.47761 z M 71.64179 0.00000 h 1.49254 v 64.00000 h -1.49254 z M 74.62687 0.00000 h 1.49254 v 64.00000 h -1.49254 z M 80.59701 0.00000 h 1.49254 v 64.00000 h -1.49254 z M 85.07463 0.00000 h 1.49254 v 64.00000 h -1.49254 z M 88.05970 0.00000 h 4.47761 v 64.00000 h -4.47761 z M 95.52239 0.00000 h 1.49254 v 72.00000 h -1.49254 z M 98.50746 0.00000 h 1.49254 v 72.00000 h -1.49254 z " style="fill: #000000"/><text style="fill: #000000; font-family: &quot;monospace&quot;; font-size: 16.00000px" x="0.00000" y="0.00000"><tspan style="text-anchor: middle" x="9.70149" y="76.00000">9</tspan><tspan style="text-anchor: middle" x="20.14925" y="76.00000">6</tspan><tspan style="text-anchor: middle" x="30.59701" y="76.00000">3</tspan><tspan style="text-anchor: middle" x="41.04478" y="76.00000">8</tspan><tspan style="text-anchor: middle" x="58.95522" y="76.00000">5</tspan><tspan style="text-anchor: middle" x="69.40299" y="76.00000">0</tspan><tspan style="text-anchor: middle" x="79.85075" y="76.00000">7</tspan><tspan style="text-anchor: middle" x="90.29851" y="76.00000">4</tspan></text></svg>