<svg viewBox="0.00000 0.00000 200.00000 80.00000" xmlns="http://www.w3.org/2000/svg"><path d="M 0.00000 0.00000 h 2.98507 v 72.00000 h -2.98507 z M 5.97015 0.00000 h 2.98507 v 72.00000 h -2.98507 z M 17.91045 0.00000 h 2.98507 v 64.00000 h -2.98507 z M 23.88060 0.00000 h 5.97015 v 64.00000 h -5.97015 z M 32.83582 0.00000 h 2.98507 v 64.00000 h -2.98507 z M 38.80597 0.00000 h 11.94030 v 64.00000 h -11.94030 z M 53.73134 0.00000 h 11.94030 v 64.00000 h -11.94030 z M 68.65672 0.00000 h 2.98507 v 64.00000 h -2.98507 z M 74.62687 0.00000 h 5.97015 v 64.00000 h -5.97015 z M 83.58209 0.00000 h 8.95522 v 64.00000 h -8.95522 z M 95.52239 0.00000 h 2.98507 v 72.00000 h -2.98507 z M 101.49254 0.00000 h 2.98507 v 72.00000 h -2.98507 z M 107.46269 0.00000 h 2.98507 v 64.00000 h -2.98507 z M 116.41791 0.00000 h 8.95522 v 64.00000 h -8.95522 z M 128.35821 0.00000 h 8.95522 v 64.00000 h -8.95522 z M 143.28358 0.00000 h 2.98507 v 64.00000 h -2.98507 z M 149.25373 0.00000 h 2.98507 v 64.00000 h -2.98507 z M 161.19403 0.00000 h 2.98507 v 64.00000 h -2.98507 z M 170.14925 0.00000 h 2.98507 v 64.00000 h -2.98507 z M 176.11940 0.00000 h 8.95522 v 64.00000 h -8.95522 z M 191.04478 0.00000 h 2.98507 v 72.00000 h -2.98507 z M 197.01493 0.00000 h 2.98507 v 72.00000 h -2.98507 z " style="fill: #000000"/><text style="fill: #000000; font-family: &quot;monospace&quot;; font-size: 16.00000px" x="0.00000" y="0.00000"><tspan style="text-anchor: middle" x="19.40299" y="76.00000">9</tspan><tspan style="text-anchor: middle" x="40.29851" y="76.00000">6</tspan><tspan style="text-anchor: middle" x="61.19403" y="76.00000">3</tspan><tspan style="text-anchor: middle" x="82.08955" y="76.00000">8</tspan><tspan style="text-anchor: middle" x="117.91045" y="76.00000">5</tspan><tspan style="text-anchor: middle" x="138.80597" y="76.00000">0</tspan><tspan style="text-anchor: middle" x="159.70149" y="76.00000">7</tspan><tspan style="text-anchor: middle" x="180.59701" y="76.00000">4</tspan></text></svg>