<svg viewBox="0.00000 0.00000 100.00000 80.00000" xmlns="http://www.w3.org/2000/svg"><path d="M 16.00000 0.00000 h 1.01493 v 72.00000 h -1.01493 z M 18.02985 0.00000 h 1.01493 v 72.00000 h -1.01493 z M 22.08955 0.00000 h 1.01493 v 60.00000 h -1.01493 z M 24.11940 0.00000 h 2.02985 v 60.00000 h -2.02985 z M 27.16418 0.00000 h 1.01493 v 60.00000 h -1.01493 z M 29.19403 0.00000 h 4.05970 v 60.00000 h -4.05970 z M 34.26866 0.00000 h 4.05970 v 60.00000 h -4.05970 z M 39.34328 0.00000 h 1.01493 v 60.00000 h -1.01493 z M 41.37313 0.00000 h 2.02985 v 60.00000 h -2.02985 z M 44.41791 0.00000 h 3.04478 v 60.00000 h -3.04478 z M 48.47761 0.00000 h 1.01493 v 72.00000 h -1.01493 z M 50.50746 0.00000 h 1.01493 v 72.00000 h -1.01493 z M 52.53731 0.00000 h 1.01493 v 60.00000 h -1.01493 z M 55.58209 0.00000 h 3.04478 v 60.00000 h -3.04478 z M 59.64179 0.00000 h 3.04478 v 60.00000 h -3.04478 z M 64.71642 0.00000 h 1.01493 v 60.00000 h -1.01493 z M 66.74627 0.00000 h 1.01493 v 60.00000 h -1.01493 z M 70.80597 0.00000 h 1.01493 v 60.00000 h -1.01493 z M 73.85075 0.00000 h 1.01493 v 60.00000 h -1.01493 z M 75.88060 0.00000 h 3.04478 v 60.00000 h -3.04478 z M 80.95522 0.00000 h 1.01493 v 72.00000 h -1.01493 z M 82.98507 0.00000 h 1.01493 v 72.00000 h -1.01493 z " style="fill: #000000"/><text style="fill: #000000; font-family: &quot;monospace&quot;; font-size: 16.00000px" x="0.00000" y="0.00000"><tspan style="text-anchor: middle" x="22.59701" y="76.00000">9</tspan><tspan style="text-anchor: middle" x="29.70149" y="76.00000">6</tspan><tspan style="text-anchor: middle" x="36.80597" y="76.00000">3</tspan><tspan style="text-anchor: middle" x="43.91045" y="76.00000">8</tspan><tspan style="text-anchor: middle" x="56.08955" y="76.00000">5</tspan><tspan style="text-anchor: middle" x="63.19403" y="76.00000">0</tspan><tspan style="text-anchor: middle" x="70.29851" y="76.00000">7</tspan><tspan style="text-anchor: middle" x="77.40299" y="76.00000">4</tspan><tspan style="text-anchor: end" x="14.98507" y="76.00000">&lt;</tspan><tspan style="text-anchor: start" x="85.01493" y="76.00000">&gt;</tspan></text></svg>