<svg viewBox="0.00000 0.00000 200.00000 80.00000" xmlns="http://www.w3.org/2000/svg"><path d="M 16.00000 0.00000 h 1.93684 v 72.00000 h -1.93684 z M 19.87368 0.00000 h 1.93684 v 72.00000 h -1.93684 z M 27.62105 0.00000 h 1.93684 v 64.00000 h -1.93684 z M 31.49474 0.00000 h 3.87368 v 64.00000 h -3.87368 z M 37.30526 0.00000 h 1.93684 v 64.00000 h -1.93684 z M 43.11579 0.00000 h 5.81053 v 64.00000 h -5.81053 z M 50.86316 0.00000 h 3.87368 v 64.00000 h -3.87368 z M 58.61053 0.00000 h 3.87368 v 64.00000 h -3.87368 z M 66.35789 0.00000 h 1.93684 v 64.00000 h -1.93684 z M 72.16842 0.00000 h 3.87368 v 64.00000 h -3.87368 z M 77.97895 0.00000 h 7.74737 v 64.00000 h -7.74737 z M 87.66316 0.00000 h 1.93684 v 64.00000 h -1.93684 z M 93.47368 0.00000 h 5.81053 v 64.00000 h -5.81053 z M 101.22105 0.00000 h 1.93684 v 64.00000 h -1.93684 z M 105.09474 0.00000 h 1.93684 v 72.00000 h -1.93684 z M 108.96842 0.00000 h 1.93684 v 72.00000 h -1.93684 z M 112.84211 0.00000 h 3.87368 v 64.00000 h -3.87368 z M 120.58947 0.00000 h 3.87368 v 64.00000 h -3.87368 z M 126.40000 0.00000 h 3.87368 v 64.00000 h -3.87368 z M 132.21053 0.00000 h 3.87368 v 64.00000 h -3.87368 z M 139.95789 0.00000 h 1.93684 v 64.00000 h -1.93684 z M 149.64211 0.00000 h 1.93684 v 64.00000 h -1.93684 z M 153.51579 0.00000 h 1.93684 v 64.00000 h -1.93684 z M 157.38947 0.00000 h 5.81053 v 64.00000 h -5.81053 z M 167.07368 0.00000 h 1.93684 v 64.00000 h -1.93684 z M 172.88421 0.00000 h 5.81053 v 64.00000 h -5.81053 z M 180.63158 0.00000 h 1.93684 v 64.00000 h -1.93684 z M 188.37895 0.00000 h 1.93684 v 64.00000 h -1.93684 z M 194.18947 0.00000 h 1.93684 v 72.00000 h -1.93684 z M 198.06316 0.00000 h 1.93684 v 72.00000 h -1.93684 z " style="fill: #000000"/><text style="fill: #000000; font-family: &quot;monospace&quot;; font-size: 16.00000px" x="0.00000" y="0.00000"><tspan style="text-anchor: end" x="14.06316" y="76.00000">5</tspan><tspan style="text-anchor: middle" x="28.58947" y="76.00000">9</tspan><tspan style="text-anchor: middle" x="42.14737" y="76.00000">0</tspan><tspan style="text-anchor: middle" x="55.70526" y="76.00000">1</tspan><tspan style="text-anchor: middle" x="69.26316" y="76.00000">2</tspan><tspan style="text-anchor: middle" x="82.82105" y="76.00000">3</tspan><tspan style="text-anchor: middle" x="96.37895" y="76.00000">4</tspan><tspan style="text-anchor: middle" x="119.62105" y="76.00000">1</tspan><tspan style="text-anchor: middle" x="133.17895" y="76.00000">2</tspan><tspan style="text-anchor: middle" x="146.73684" y="76.00000">3</tspan><tspan style="text-anchor: middle" x="160.29474" y="76.00000">4</tspan><tspan style="text-anchor: middle" x="173.85263" y="76.00000">5</tspan><tspan style="text-anchor: middle" x="187.41053" y="76.00000">7</tspan></text></svg>