<svg viewBox="0.00000 0.00000 200.00000 80.00000" xmlns="http://www.w3.org/2000/svg"><path d="M 0.00000 0.00000 h 2.24719 v 64.00000 h -2.24719 z M 3.37079 0.00000 h 1.12360 v 64.00000 h -1.12360 z M 6.74157 0.00000 h 3.37079 v 64.00000 h -3.37079 z M 12.35955 0.00000 h 4.49438 v 64.00000 h -4.49438 z M 17.97753 0.00000 h 1.12360 v 64.00000 h -1.12360 z M 20.22472 0.00000 h 3.37079 v 64.00000 h -3.37079 z M 24.71910 0.00000 h 1.12360 v 64.00000 h -1.12360 z M 26.96629 0.00000 h 2.24719 v 64.00000 h -2.24719 z M 30.33708 0.00000 h 3.37079 v 64.00000 h -3.37079 z M 37.07865 0.00000 h 2.24719 v 64.00000 h -2.24719 z M 41.57303 0.00000 h 2.24719 v 64.00000 h -2.24719 z M 46.06742 0.00000 h 2.24719 v 64.00000 h -2.24719 z M 49.43820 0.00000 h 3.37079 v 64.00000 h -3.37079 z M 53.93258 0.00000 h 2.24719 v 64.00000 h -2.24719 z M 57.30337 0.00000 h 3.37079 v 64.00000 h -3.37079 z M 61.79775 0.00000 h 1.12360 v 64.00000 h -1.12360 z M 64.04494 0.00000 h 3.37079 v 64.00000 h -3.37079 z M 68.53933 0.00000 h 2.24719 v 64.00000 h -2.24719 z M 74.15730 0.00000 h 4.49438 v 64.00000 h -4.49438 z M 79.77528 0.00000 h 1.12360 v 64.00000 h -1.12360 z M 82.02247 0.00000 h 3.37079 v 64.00000 h -3.37079 z M 86.51685 0.00000 h 3.37079 v 64.00000 h -3.37079 z M 93.25843 0.00000 h 1.12360 v 64.00000 h -1.12360 z M 95.50562 0.00000 h 2.24719 v 64.00000 h -2.24719 z M 98.87640 0.00000 h 2.24719 v 64.00000 h -2.24719 z M 105.61798 0.00000 h 1.12360 v 64.00000 h -1.12360 z M 107.86517 0.00000 h 1.12360 v 64.00000 h -1.12360 z M 111.23596 0.00000 h 2.24719 v 64.00000 h -2.24719 z M 114.60674 0.00000 h 2.24719 v 64.00000 h -2.24719 z M 119.10112 0.00000 h 2.24719 v 64.00000 h -2.24719 z M 123.59551 0.00000 h 2.24719 v 64.00000 h -2.24719 z M 126.96629 0.00000 h 2.24719 v 64.00000 h -2.24719 z M 131.46067 0.00000 h 2.24719 v 64.00000 h -2.24719 z M 135.95506 0.00000 h 2.24719 v 64.00000 h -2.24719 z M 139.32584 0.00000 h 2.24719 v 64.00000 h -2.24719 z M 143.82022 0.00000 h 2.24719 v 64.00000 h -2.24719 z M 148.31461 0.00000 h 2.24719 v 64.00000 h -2.24719 z M 151.68539 0.00000 h 2.24719 v 64.00000 h -2.24719 z M 156.17978 0.00000 h 2.24719 v 64.00000 h -2.24719 z M 160.67416 0.00000 h 2.24719 v 64.00000 h -2.24719 z M 165.16854 0.00000 h 2.24719 v 64.00000 h -2.24719 z M 168.53933 0.00000 h 2.24719 v 64.00000 h -2.24719 z M 173.03371 0.00000 h 1.12360 v 64.00000 h -1.12360 z M 175.28090 0.00000 h 1.12360 v 64.00000 h -1.12360 z M 177.52809 0.00000 h 4.49438 v 64.00000 h -4.49438 z M 185.39326 0.00000 h 2.24719 v 64.00000 h -2.24719 z M 191.01124 0.00000 h 3.37079 v 64.00000 h -3.37079 z M 195.50562 0.00000 h 1.12360 v 64.00000 h -1.12360 z M 197.75281 0.00000 h 2.24719 v 64.00000 h -2.24719 z " style="fill: #000000"/><text style="fill: #000000; font-family: &quot;monospace&quot;; font-size: 16.00000px" x="0.00000" y="0.00000"><tspan style="text-anchor: middle" x="100.00000" y="76.00000">420 22345 56780000000001</tspan></text></svg>