<svg viewBox="0.00000 0.00000 200.00000 80.00000" xmlns="http://www.w3.org/2000/svg"><path d="M 0.00000 0.00000 h 2.56410 v 64.00000 h -2.56410 z M 3.84615 0.00000 h 1.28205 v 64.00000 h -1.28205 z M 7.69231 0.00000 h 3.84615 v 64.00000 h -3.84615 z M 14.10256 0.00000 h 5.12821 v 64.00000 h -5.12821 z M 20.51282 0.00000 h 1.28205 v 64.00000 h -1.28205 z M 23.07692 0.00000 h 3.84615 v 64.00000 h -3.84615 z M 28.20513 0.00000 h 2.56410 v 64.00000 h -2.56410 z M 32.05128 0.00000 h 2.56410 v 64.00000 h -2.56410 z M 37.17949 0.00000 h 2.56410 v 64.00000 h -2.56410 z M 42.30769 0.00000 h 1.28205 v 64.00000 h -1.28205 z M 44.87179 0.00000 h 2.56410 v 64.00000 h -2.56410 z M 50.00000 0.00000 h 3.84615 v 64.00000 h -3.84615 z M 56.41026 0.00000 h 1.28205 v 64.00000 h -1.28205 z M 61.53846 0.00000 h 1.28205 v 64.00000 h -1.28205 z M 64.10256 0.00000 h 2.56410 v 64.00000 h -2.56410 z M 70.51282 0.00000 h 3.84615 v 64.00000 h -3.84615 z M 78.20513 0.00000 h 1.28205 v 64.00000 h -1.28205 z M 80.76923 0.00000 h 2.56410 v 64.00000 h -2.56410 z M 84.61538 0.00000 h 2.56410 v 64.00000 h -2.56410 z M 92.30769 0.00000 h 1.28205 v 64.00000 h -1.28205 z M 94.87179 0.00000 h 1.28205 v 64.00000 h -1.28205 z M 98.71795 0.00000 h 2.56410 v 64.00000 h -2.56410 z M 102.56410 0.00000 h 2.56410 v 64.00000 h -2.56410 z M 107.69231 0.00000 h 2.56410 v 64.00000 h -2.56410 z M 112.82051 0.00000 h 2.56410 v 64.00000 h -2.56410 z M 116.66667 0.00000 h 2.56410 v 64.00000 h -2.56410 z M 121.79487 0.00000 h 2.56410 v 64.00000 h -2.56410 z M 126.92308 0.00000 h 2.56410 v 64.00000 h -2.56410 z M 130.76923 0.00000 h 2.56410 v 64.00000 h -2.56410 z M 135.89744 0.00000 h 2.56410 v 64.00000 h -2.56410 z M 141.02564 0.00000 h 2.56410 v 64.00000 h -2.56410 z M 144.87179 0.00000 h 2.56410 v 64.00000 h -2.56410 z M 150.00000 0.00000 h 2.56410 v 64.00000 h -2.56410 z M 155.12821 0.00000 h 2.56410 v 64.00000 h -2.56410 z M 160.25641 0.00000 h 2.56410 v 64.00000 h -2.56410 z M 164.10256 0.00000 h 2.56410 v 64.00000 h -2.56410 z M 169.23077 0.00000 h 1.28205 v 64.00000 h -1.28205 z M 174.35897 0.00000 h 1.28205 v 64.00000 h -1.28205 z M 178.20513 0.00000 h 2.56410 v 64.00000 h -2.56410 z M 183.33333 0.00000 h 2.56410 v 64.00000 h -2.56410 z M 189.74359 0.00000 h 3.84615 v 64.00000 h -3.84615 z M 194.87179 0.00000 h 1.28205 v 64.00000 h -1.28205 z M 197.43590 0.00000 h 2.56410 v 64.00000 h -2.56410 z " style="fill: #000000"/><text style="fill: #000000; font-family: &quot;monospace&quot;; font-size: 16.00000px" x="0.00000" y="0.00000"><tspan style="text-anchor: middle" x="100.00000" y="76.00000">00123456780000000001</tspan></text></svg>