<svg viewBox="0.00000 0.00000 200.00000 80.00000" xmlns="http://www.w3.org/2000/svg"><path d="M 16.00000 20.00000 h 1.76842 v 52.00000 h -1.76842 z M 19.53684 20.00000 h 1.76842 v 52.00000 h -1.76842 z M 23.07368 20.00000 h 5.30526 v 40.00000 h -5.30526 z M 30.14737 20.00000 h 3.53684 v 40.00000 h -3.53684 z M 38.98947 20.00000 h 1.76842 v 40.00000 h -1.76842 z M 44.29474 20.00000 h 1.76842 v 40.00000 h -1.76842 z M 47.83158 20.00000 h 1.76842 v 40.00000 h -1.76842 z M 56.67368 20.00000 h 1.76842 v 40.00000 h -1.76842 z M 61.97895 20.00000 h 3.53684 v 40.00000 h -3.53684 z M 69.05263 20.00000 h 1.76842 v 40.00000 h -1.76842 z M 77.89474 20.00000 h 1.76842 v 40.00000 h -1.76842 z M 81.43158 20.00000 h 1.76842 v 40.00000 h -1.76842 z M 86.73684 20.00000 h 3.53684 v 40.00000 h -3.53684 z M 93.81053 20.00000 h 1.76842 v 40.00000 h -1.76842 z M 97.34737 20.00000 h 1.76842 v 52.00000 h -1.76842 z M 100.88421 20.00000 h 1.76842 v 52.00000 h -1.76842 z M 104.42105 20.00000 h 1.76842 v 40.00000 h -1.76842 z M 107.95789 20.00000 h 5.30526 v 40.00000 h -5.30526 z M 116.80000 20.00000 h 1.76842 v 40.00000 h -1.76842 z M 122.10526 20.00000 h 1.76842 v 40.00000 h -1.76842 z M 129.17895 20.00000 h 1.76842 v 40.00000 h -1.76842 z M 132.71579 20.00000 h 5.30526 v 40.00000 h -5.30526 z M 141.55789 20.00000 h 3.53684 v 40.00000 h -3.53684 z M 148.63158 20.00000 h 3.53684 v 40.00000 h -3.53684 z M 153.93684 20.00000 h 5.30526 v 40.00000 h -5.30526 z M 162.77895 20.00000 h 1.76842 v 40.00000 h -1.76842 z M 166.31579 20.00000 h 5.30526 v 40.00000 h -5.30526 z M 175.15789 20.00000 h 1.76842 v 40.00000 h -1.76842 z M 178.69474 20.00000 h 1.76842 v 52.00000 h -1.76842 z M 182.23158 20.00000 h 1.76842 v 52.00000 h -1.76842 z " style="fill: #000000"/><text style="fill: #000000; font-family: &quot;monospace&quot;; font-size: 16.00000px" x="0.00000" y="0.00000"><tspan style="text-anchor: end" x="14.23158" y="76.00000">9</tspan><tspan style="text-anchor: middle" x="27.49474" y="76.00000">7</tspan><tspan style="text-anchor: middle" x="39.87368" y="76.00000">8</tspan><tspan style="text-anchor: middle" x="52.25263" y="76.00000">3</tspan><tspan style="text-anchor: middle" x="64.63158" y="76.00000">1</tspan><tspan style="text-anchor: middle" x="77.01053" y="76.00000">6</tspan><tspan style="text-anchor: middle" x="89.38947" y="76.00000">1</tspan><tspan style="text-anchor: middle" x="110.61053" y="76.00000">4</tspan><tspan style="text-anchor: middle" x="122.98947" y="76.00000">8</tspan><tspan style="text-anchor: middle" x="135.36842" y="76.00000">4</tspan><tspan style="text-anchor: middle" x="147.74737" y="76.00000">1</tspan><tspan style="text-anchor: middle" x="160.12632" y="76.00000">0</tspan><tspan style="text-anchor: middle" x="172.50526" y="76.00000">0</tspan><tspan style="text-anchor: start" x="185.76842" y="76.00000">&gt;</tspan><tspan style="text-anchor: middle" x="100.00000" y="12.00000">ISBN 978-316148410-0</tspan></text></svg>