<svg viewBox="0.00000 0.00000 200.00000 80.00000" xmlns="http://www.w3.org/2000/svg"><path d="M 16.00000 16.00000 h 1.93684 v 56.00000 h -1.93684 z M 19.87368 16.00000 h 1.93684 v 56.00000 h -1.93684 z M 23.74737 16.00000 h 5.81053 v 48.00000 h -5.81053 z M 31.49474 16.00000 h 3.87368 v 48.00000 h -3.87368 z M 41.17895 16.00000 h 1.93684 v 48.00000 h -1.93684 z M 46.98947 16.00000 h 1.93684 v 48.00000 h -1.93684 z M 50.86316 16.00000 h 1.93684 v 48.00000 h -1.93684 z M 60.54737 16.00000 h 1.93684 v 48.00000 h -1.93684 z M 66.35789 16.00000 h 3.87368 v 48.00000 h -3.87368 z M 74.10526 16.00000 h 1.93684 v 48.00000 h -1.93684 z M 83.78947 16.00000 h 1.93684 v 48.00000 h -1.93684 z M 87.66316 16.00000 h 1.93684 v 48.00000 h -1.93684 z M 93.47368 16.00000 h 3.87368 v 48.00000 h -3.87368 z M 101.22105 16.00000 h 1.93684 v 48.00000 h -1.93684 z M 105.09474 16.00000 h 1.93684 v 56.00000 h -1.93684 z M 108.96842 16.00000 h 1.93684 v 56.00000 h -1.93684 z M 112.84211 16.00000 h 1.93684 v 48.00000 h -1.93684 z M 116.71579 16.00000 h 5.81053 v 48.00000 h -5.81053 z M 126.40000 16.00000 h 1.93684 v 48.00000 h -1.93684 z M 132.21053 16.00000 h 1.93684 v 48.00000 h -1.93684 z M 139.95789 16.00000 h 1.93684 v 48.00000 h -1.93684 z M 143.83158 16.00000 h 5.81053 v 48.00000 h -5.81053 z M 153.51579 16.00000 h 3.87368 v 48.00000 h -3.87368 z M 161.26316 16.00000 h 3.87368 v 48.00000 h -3.87368 z M 167.07368 16.00000 h 5.81053 v 48.00000 h -5.81053 z M 176.75789 16.00000 h 1.93684 v 48.00000 h -1.93684 z M 180.63158 16.00000 h 5.81053 v 48.00000 h -5.81053 z M 190.31579 16.00000 h 1.93684 v 48.00000 h -1.93684 z M 194.18947 16.00000 h 1.93684 v 56.00000 h -1.93684 z M 198.06316 16.00000 h 1.93684 v 56.00000 h -1.93684 z " style="fill: #000000"/><text style="fill: #000000; font-family: &quot;monospace&quot;; font-size: 16.00000px" x="0.00000" y="0.00000"><tspan style="text-anchor: end" x="14.06316" y="76.00000">9</tspan><tspan style="text-anchor: middle" x="28.58947" y="76.00000">7</tspan><tspan style="text-anchor: middle" x="42.14737" y="76.00000">8</tspan><tspan style="text-anchor: middle" x="55.70526" y="76.00000">3</tspan><tspan style="text-anchor: middle" x="69.26316" y="76.00000">1</tspan><tspan style="text-anchor: middle" x="82.82105" y="76.00000">6</tspan><tspan style="text-anchor: middle" x="96.37895" y="76.00000">1</tspan><tspan style="text-anchor: middle" x="119.62105" y="76.00000">4</tspan><tspan style="text-anchor: middle" x="133.17895" y="76.00000">8</tspan><tspan style="text-anchor: middle" x="146.73684" y="76.00000">4</tspan><tspan style="text-anchor: middle" x="160.29474" y="76.00000">1</tspan><tspan style="text-anchor: middle" x="173.85263" y="76.00000">0</tspan><tspan style="text-anchor: middle" x="187.41053" y="76.00000">0</tspan><tspan style="text-anchor: middle" x="100.00000" y="12.00000">ISBN 978-316148410-0</tspan></text></svg>