<svg viewBox="0.00000 0.00000 200.00000 80.00000" xmlns="http://www.w3.org/2000/svg"><path d="M 17.00000 3.00000 h 1.22963 v 54.00000 h -1.22963 z M 19.45926 3.00000 h 1.22963 v 54.00000 h -1.22963 z M 21.91852 3.00000 h 3.68889 v 54.00000 h -3.68889 z M 29.29630 3.00000 h 1.22963 v 54.00000 h -1.22963 z M 31.75556 3.00000 h 1.22963 v 54.00000 h -1.22963 z M 36.67407 3.00000 h 1.22963 v 54.00000 h -1.22963 z M 39.13333 3.00000 h 3.68889 v 54.00000 h -3.68889 z M 44.05185 3.00000 h 1.22963 v 54.00000 h -1.22963 z M 46.51111 3.00000 h 1.22963 v 54.00000 h -1.22963 z M 48.97037 3.00000 h 3.68889 v 54.00000 h -3.68889 z M 56.34815 3.00000 h 1.22963 v 54.00000 h -1.22963 z M 61.26667 3.00000 h 3.68889 v 54.00000 h -3.68889 z M 66.18519 3.00000 h 1.22963 v 54.00000 h -1.22963 z M 71.10370 3.00000 h 1.22963 v 54.00000 h -1.22963 z M 73.56296 3.00000 h 3.68889 v 54.00000 h -3.68889 z M 78.48148 3.00000 h 3.68889 v 54.00000 h -3.68889 z M 83.40000 3.00000 h 1.22963 v 54.00000 h -1.22963 z M 88.31852 3.00000 h 1.22963 v 54.00000 h -1.22963 z M 93.23704 3.00000 h 1.22963 v 54.00000 h -1.22963 z M 95.69630 3.00000 h 3.68889 v 54.00000 h -3.68889 z M 100.61481 3.00000 h 1.22963 v 54.00000 h -1.22963 z M 103.07407 3.00000 h 3.68889 v 54.00000 h -3.68889 z M 110.45185 3.00000 h 1.22963 v 54.00000 h -1.22963 z M 115.37037 3.00000 h 3.68889 v 54.00000 h -3.68889 z M 120.28889 3.00000 h 1.22963 v 54.00000 h -1.22963 z M 122.74815 3.00000 h 1.22963 v 54.00000 h -1.22963 z M 127.66667 3.00000 h 3.68889 v 54.00000 h -3.68889 z M 132.58519 3.00000 h 3.68889 v 54.00000 h -3.68889 z M 137.50370 3.00000 h 1.22963 v 54.00000 h -1.22963 z M 139.96296 3.00000 h 1.22963 v 54.00000 h -1.22963 z M 142.42222 3.00000 h 3.68889 v 54.00000 h -3.68889 z M 149.80000 3.00000 h 1.22963 v 54.00000 h -1.22963 z M 154.71852 3.00000 h 1.22963 v 54.00000 h -1.22963 z M 159.63704 3.00000 h 3.68889 v 54.00000 h -3.68889 z M 167.01481 3.00000 h 3.68889 v 54.00000 h -3.68889 z M 171.93333 3.00000 h 1.22963 v 54.00000 h -1.22963 z M 174.39259 3.00000 h 1.22963 v 54.00000 h -1.22963 z M 176.85185 3.00000 h 3.68889 v 54.00000 h -3.68889 z M 181.77037 3.00000 h 1.22963 v 54.00000 h -1.22963 z M 0.00000 0.00000 h 200.00000 v 3.00000 h -200.00000 z M 0.00000 57.00000 h 200.00000 v 3.00000 h -200.00000 z M 0.00000 3.00000 h 3.00000 v 54.00000 h -3.00000 z M 197.00000 3.00000 h 3.00000 v 54.00000 h -3.00000 z " style="fill: #000000"/><text style="fill: #000000; font-family: &quot;monospace&quot;; font-size: 16.00000px" x="0.00000" y="0.00000"><tspan style="text-anchor: middle" x="100.00000" y="76.00000">1 54 00141 28876 3</tspan></text></svg>