<svg viewBox="0.00000 0.00000 200.00000 80.00000" xmlns="http://www.w3.org/2000/svg"><path d="M 17.00000 3.00000 h 1.08497 v 54.00000 h -1.08497 z M 19.16993 3.00000 h 1.08497 v 54.00000 h -1.08497 z M 21.33987 3.00000 h 3.25490 v 54.00000 h -3.25490 z M 27.84967 3.00000 h 1.08497 v 54.00000 h -1.08497 z M 30.01961 3.00000 h 1.08497 v 54.00000 h -1.08497 z M 34.35948 3.00000 h 1.08497 v 54.00000 h -1.08497 z M 36.52941 3.00000 h 3.25490 v 54.00000 h -3.25490 z M 40.86928 3.00000 h 1.08497 v 54.00000 h -1.08497 z M 43.03922 3.00000 h 1.08497 v 54.00000 h -1.08497 z M 45.20915 3.00000 h 3.25490 v 54.00000 h -3.25490 z M 51.71895 3.00000 h 1.08497 v 54.00000 h -1.08497 z M 56.05882 3.00000 h 3.25490 v 54.00000 h -3.25490 z M 60.39869 3.00000 h 1.08497 v 54.00000 h -1.08497 z M 64.73856 3.00000 h 1.08497 v 54.00000 h -1.08497 z M 66.90850 3.00000 h 3.25490 v 54.00000 h -3.25490 z M 71.24837 3.00000 h 3.25490 v 54.00000 h -3.25490 z M 75.58824 3.00000 h 1.08497 v 54.00000 h -1.08497 z M 79.92810 3.00000 h 1.08497 v 54.00000 h -1.08497 z M 84.26797 3.00000 h 1.08497 v 54.00000 h -1.08497 z M 86.43791 3.00000 h 3.25490 v 54.00000 h -3.25490 z M 90.77778 3.00000 h 1.08497 v 54.00000 h -1.08497 z M 92.94771 3.00000 h 3.25490 v 54.00000 h -3.25490 z M 99.45752 3.00000 h 1.08497 v 54.00000 h -1.08497 z M 103.79739 3.00000 h 3.25490 v 54.00000 h -3.25490 z M 108.13725 3.00000 h 1.08497 v 54.00000 h -1.08497 z M 110.30719 3.00000 h 1.08497 v 54.00000 h -1.08497 z M 114.64706 3.00000 h 3.25490 v 54.00000 h -3.25490 z M 118.98693 3.00000 h 3.25490 v 54.00000 h -3.25490 z M 123.32680 3.00000 h 1.08497 v 54.00000 h -1.08497 z M 125.49673 3.00000 h 1.08497 v 54.00000 h -1.08497 z M 127.66667 3.00000 h 3.25490 v 54.00000 h -3.25490 z M 134.17647 3.00000 h 1.08497 v 54.00000 h -1.08497 z M 138.51634 3.00000 h 1.08497 v 54.00000 h -1.08497 z M 140.68627 3.00000 h 3.25490 v 54.00000 h -3.25490 z M 145.02614 3.00000 h 3.25490 v 54.00000 h -3.25490 z M 149.36601 3.00000 h 1.08497 v 54.00000 h -1.08497 z M 153.70588 3.00000 h 1.08497 v 54.00000 h -1.08497 z M 158.04575 3.00000 h 3.25490 v 54.00000 h -3.25490 z M 162.38562 3.00000 h 1.08497 v 54.00000 h -1.08497 z M 166.72549 3.00000 h 1.08497 v 54.00000 h -1.08497 z M 168.89542 3.00000 h 3.25490 v 54.00000 h -3.25490 z M 173.23529 3.00000 h 1.08497 v 54.00000 h -1.08497 z M 177.57516 3.00000 h 3.25490 v 54.00000 h -3.25490 z M 181.91503 3.00000 h 1.08497 v 54.00000 h -1.08497 z M 0.00000 0.00000 h 200.00000 v 3.00000 h -200.00000 z M 0.00000 57.00000 h 200.00000 v 3.00000 h -200.00000 z M 0.00000 3.00000 h 3.00000 v 54.00000 h -3.00000 z M 197.00000 3.00000 h 3.00000 v 54.00000 h -3.00000 z " style="fill: #000000"/><text style="fill: #000000; font-family: &quot;monospace&quot;; font-size: 16.00000px" x="0.00000" y="0.00000"><tspan style="text-anchor: middle" x="100.00000" y="76.00000">1 54 00 14128 87678 2</tspan></text></svg>