<svg viewBox="0.00000 0.00000 200.00000 80.00000" xmlns="http://www.w3.org/2000/svg"><path d="M 0.00000 0.00000 h 3.17460 v 60.00000 h -3.17460 z M 6.34921 0.00000 h 3.17460 v 60.00000 h -3.17460 z M 12.69841 0.00000 h 3.17460 v 60.00000 h -3.17460 z M 25.39683 0.00000 h 9.52381 v 60.00000 h -9.52381 z M 38.09524 0.00000 h 3.17460 v 60.00000 h -3.17460 z M 44.44444 0.00000 h 9.52381 v 60.00000 h -9.52381 z M 63.49206 0.00000 h 3.17460 v 60.00000 h -3.17460 z M 69.84127 0.00000 h 3.17460 v 60.00000 h -3.17460 z M 76.19048 0.00000 h 3.17460 v 60.00000 h -3.17460 z M 88.88889 0.00000 h 3.17460 v 60.00000 h -3.17460 z M 95.23810 0.00000 h 9.52381 v 60.00000 h -9.52381 z M 107.93651 0.00000 h 9.52381 v 60.00000 h -9.52381 z M 126.98413 0.00000 h 9.52381 v 60.00000 h -9.52381 z M 139.68254 0.00000 h 9.52381 v 60.00000 h -9.52381 z M 152.38095 0.00000 h 3.17460 v 60.00000 h -3.17460 z M 165.07937 0.00000 h 3.17460 v 60.00000 h -3.17460 z M 171.42857 0.00000 h 3.17460 v 60.00000 h -3.17460 z M 184.12698 0.00000 h 9.52381 v 60.00000 h -9.52381 z M 196.82540 0.00000 h 3.17460 v 60.00000 h -3.17460 z " style="fill: #000000"/><text style="fill: #000000; font-family: &quot;monospace&quot;; font-size: 16.00000px" x="0.00000" y="0.00000"><tspan style="text-anchor: middle" x="100.00000" y="76.00000">987234</tspan></text></svg>