<svg viewBox="0.00000 0.00000 200.00000 80.00000" xmlns="http://www.w3.org/2000/svg"><path d="M 0.00000 26.40777 h 15.53398 v 3.88350 h -15.53398 z M 17.47573 26.40777 h 1.94175 v 3.88350 h -1.94175 z M 21.35922 26.40777 h 1.94175 v 3.88350 h -1.94175 z M 25.24272 26.40777 h 1.94175 v 3.88350 h -1.94175 z M 33.00971 26.40777 h 7.76699 v 3.88350 h -7.76699 z M 42.71845 26.40777 h 1.94175 v 3.88350 h -1.94175 z M 46.60194 26.40777 h 1.94175 v 3.88350 h -1.94175 z M 50.48544 26.40777 h 7.76699 v 3.88350 h -7.76699 z M 66.01942 26.40777 h 3.88350 v 3.88350 h -3.88350 z M 71.84466 26.40777 h 1.94175 v 3.88350 h -1.94175 z M 75.72816 26.40777 h 1.94175 v 3.88350 h -1.94175 z M 83.49515 26.40777 h 3.88350 v 3.88350 h -3.88350 z M 99.02913 26.40777 h 5.82524 v 3.88350 h -5.82524 z M 106.79612 26.40777 h 5.82524 v 3.88350 h -5.82524 z M 114.56311 26.40777 h 3.88350 v 3.88350 h -3.88350 z M 122.33010 26.40777 h 3.88350 v 3.88350 h -3.88350 z M 132.03883 26.40777 h 7.76699 v 3.88350 h -7.76699 z M 141.74757 26.40777 h 1.94175 v 3.88350 h -1.94175 z M 145.63107 26.40777 h 1.94175 v 3.88350 h -1.94175 z M 149.51456 26.40777 h 7.76699 v 3.88350 h -7.76699 z M 165.04854 26.40777 h 13.59223 v 3.88350 h -13.59223 z M 180.58252 26.40777 h 1.94175 v 3.88350 h -1.94175 z M 188.34951 26.40777 h 1.94175 v 3.88350 h -1.94175 z M 192.23301 26.40777 h 1.94175 v 3.88350 h -1.94175 z M 198.05825 26.40777 h 1.94175 v 3.88350 h -1.94175 z M 0.00000 30.29126 h 15.53398 v 3.88350 h -15.53398 z M 17.47573 30.29126 h 1.94175 v 3.88350 h -1.94175 z M 21.35922 30.29126 h 1.94175 v 3.88350 h -1.94175 z M 25.24272 30.29126 h 1.94175 v 3.88350 h -1.94175 z M 33.00971 30.29126 h 9.70874 v 3.88350 h -9.70874 z M 44.66019 30.29126 h 1.94175 v 3.88350 h -1.94175 z M 48.54369 30.29126 h 1.94175 v 3.88350 h -1.94175 z M 56.31068 30.29126 h 3.88350 v 3.88350 h -3.88350 z M 66.01942 30.29126 h 3.88350 v 3.88350 h -3.88350 z M 71.84466 30.29126 h 1.94175 v 3.88350 h -1.94175 z M 81.55340 30.29126 h 5.82524 v 3.88350 h -5.82524 z M 93.20388 30.29126 h 1.94175 v 3.88350 h -1.94175 z M 99.02913 30.29126 h 7.76699 v 3.88350 h -7.76699 z M 108.73786 30.29126 h 1.94175 v 3.88350 h -1.94175 z M 116.50485 30.29126 h 1.94175 v 3.88350 h -1.94175 z M 120.38835 30.29126 h 1.94175 v 3.88350 h -1.94175 z M 132.03883 30.29126 h 7.76699 v 3.88350 h -7.76699 z M 141.74757 30.29126 h 1.94175 v 3.88350 h -1.94175 z M 145.63107 30.29126 h 1.94175 v 3.88350 h -1.94175 z M 151.45631 30.29126 h 1.94175 v 3.88350 h -1.94175 z M 165.04854 30.29126 h 13.59223 v 3.88350 h -13.59223 z M 180.58252 30.29126 h 1.94175 v 3.88350 h -1.94175 z M 188.34951 30.29126 h 1.94175 v 3.88350 h -1.94175 z M 192.23301 30.29126 h 1.94175 v 3.88350 h -1.94175 z M 198.05825 30.29126 h 1.94175 v 3.88350 h -1.94175 z M 0.00000 34.17476 h 15.53398 v 3.88350 h -15.53398 z M 17.47573 34.17476 h 1.94175 v 3.88350 h -1.94175 z M 21.35922 34.17476 h 1.94175 v 3.88350 h -1.94175 z M 25.24272 34.17476 h 1.94175 v 3.88350 h -1.94175 z M 33.00971 34.17476 h 5.82524 v 3.88350 h -5.82524 z M 40.77670 34.17476 h 1.94175 v 3.88350 h -1.94175 z M 44.66019 34.17476 h 1.94175 v 3.88350 h -1.94175 z M 48.54369 34.17476 h 11.65049 v 3.88350 h -11.65049 z M 66.01942 34.17476 h 1.94175 v 3.88350 h -1.94175 z M 69.90291 34.17476 h 3.88350 v 3.88350 h -3.88350 z M 77.66990 34.17476 h 3.88350 v 3.88350 h -3.88350 z M 85.43689 34.17476 h 7.76699 v 3.88350 h -7.76699 z M 99.02913 34.17476 h 3.88350 v 3.88350 h -3.88350 z M 108.73786 34.17476 h 9.70874 v 3.88350 h -9.70874 z M 122.33010 34.17476 h 1.94175 v 3.88350 h -1.94175 z M 128.15534 34.17476 h 1.94175 v 3.88350 h -1.94175 z M 132.03883 34.17476 h 3.88350 v 3.88350 h -3.88350 z M 137.86408 34.17476 h 1.94175 v 3.88350 h -1.94175 z M 141.74757 34.17476 h 1.94175 v 3.88350 h -1.94175 z M 149.51456 34.17476 h 9.70874 v 3.88350 h -9.70874 z M 165.04854 34.17476 h 13.59223 v 3.88350 h -13.59223 z M 180.58252 34.17476 h 1.94175 v 3.88350 h -1.94175 z M 188.34951 34.17476 h 1.94175 v 3.88350 h -1.94175 z M 192.23301 34.17476 h 1.94175 v 3.88350 h -1.94175 z M 198.05825 34.17476 h 1.94175 v 3.88350 h -1.94175 z M 0.00000 38.05825 h 15.53398 v 3.88350 h -15.53398 z M 17.47573 38.05825 h 1.94175 v 3.88350 h -1.94175 z M 21.35922 38.05825 h 1.94175 v 3.88350 h -1.94175 z M 25.24272 38.05825 h 1.94175 v 3.88350 h -1.94175 z M 33.00971 38.05825 h 1.94175 v 3.88350 h -1.94175 z M 36.89320 38.05825 h 1.94175 v 3.88350 h -1.94175 z M 40.77670 38.05825 h 7.76699 v 3.88350 h -7.76699 z M 52.42718 38.05825 h 7.76699 v 3.88350 h -7.76699 z M 66.01942 38.05825 h 3.88350 v 3.88350 h -3.88350 z M 75.72816 38.05825 h 1.94175 v 3.88350 h -1.94175 z M 83.49515 38.05825 h 1.94175 v 3.88350 h -1.94175 z M 89.32039 38.05825 h 3.88350 v 3.88350 h -3.88350 z M 99.02913 38.05825 h 3.88350 v 3.88350 h -3.88350 z M 110.67961 38.05825 h 3.88350 v 3.88350 h -3.88350 z M 116.50485 38.05825 h 1.94175 v 3.88350 h -1.94175 z M 128.15534 38.05825 h 1.94175 v 3.88350 h -1.94175 z M 132.03883 38.05825 h 1.94175 v 3.88350 h -1.94175 z M 135.92233 38.05825 h 1.94175 v 3.88350 h -1.94175 z M 139.80583 38.05825 h 7.76699 v 3.88350 h -7.76699 z M 151.45631 38.05825 h 7.76699 v 3.88350 h -7.76699 z M 165.04854 38.05825 h 13.59223 v 3.88350 h -13.59223 z M 180.58252 38.05825 h 1.94175 v 3.88350 h -1.94175 z M 188.34951 38.05825 h 1.94175 v 3.88350 h -1.94175 z M 192.23301 38.05825 h 1.94175 v 3.88350 h -1.94175 z M 198.05825 38.05825 h 1.94175 v 3.88350 h -1.94175 z M 0.00000 41.94175 h 15.53398 v 3.88350 h -15.53398 z M 17.47573 41.94175 h 1.94175 v 3.88350 h -1.94175 z M 21.35922 41.94175 h 1.94175 v 3.88350 h -1.94175 z M 25.24272 41.94175 h 1.94175 v 3.88350 h -1.94175 z M 33.00971 41.94175 h 3.88350 v 3.88350 h -3.88350 z M 38.83495 41.94175 h 1.94175 v 3.88350 h -1.94175 z M 42.71845 41.94175 h 5.82524 v 3.88350 h -5.82524 z M 56.31068 41.94175 h 1.94175 v 3.88350 h -1.94175 z M 66.01942 41.94175 h 5.82524 v 3.88350 h -5.82524 z M 75.72816 41.94175 h 3.88350 v 3.88350 h -3.88350 z M 87.37864 41.94175 h 5.82524 v 3.88350 h -5.82524 z M 95.14563 41.94175 h 1.94175 v 3.88350 h -1.94175 z M 99.02913 41.94175 h 3.88350 v 3.88350 h -3.88350 z M 106.79612 41.94175 h 1.94175 v 3.88350 h -1.94175 z M 112.62136 41.94175 h 7.76699 v 3.88350 h -7.76699 z M 126.21359 41.94175 h 3.88350 v 3.88350 h -3.88350 z M 132.03883 41.94175 h 7.76699 v 3.88350 h -7.76699 z M 141.74757 41.94175 h 1.94175 v 3.88350 h -1.94175 z M 145.63107 41.94175 h 5.82524 v 3.88350 h -5.82524 z M 155.33981 41.94175 h 5.82524 v 3.88350 h -5.82524 z M 165.04854 41.94175 h 13.59223 v 3.88350 h -13.59223 z M 180.58252 41.94175 h 1.94175 v 3.88350 h -1.94175 z M 188.34951 41.94175 h 1.94175 v 3.88350 h -1.94175 z M 192.23301 41.94175 h 1.94175 v 3.88350 h -1.94175 z M 198.05825 41.94175 h 1.94175 v 3.88350 h -1.94175 z M 0.00000 45.82524 h 15.53398 v 3.88350 h -15.53398 z M 17.47573 45.82524 h 1.94175 v 3.88350 h -1.94175 z M 21.35922 45.82524 h 1.94175 v 3.88350 h -1.94175 z M 25.24272 45.82524 h 1.94175 v 3.88350 h -1.94175 z M 33.00971 45.82524 h 7.76699 v 3.88350 h -7.76699 z M 42.71845 45.82524 h 1.94175 v 3.88350 h -1.94175 z M 46.60194 45.82524 h 7.76699 v 3.88350 h -7.76699 z M 56.31068 45.82524 h 1.94175 v 3.88350 h -1.94175 z M 66.01942 45.82524 h 1.94175 v 3.88350 h -1.94175 z M 71.84466 45.82524 h 9.70874 v 3.88350 h -9.70874 z M 83.49515 45.82524 h 3.88350 v 3.88350 h -3.88350 z M 95.14563 45.82524 h 1.94175 v 3.88350 h -1.94175 z M 99.02913 45.82524 h 5.82524 v 3.88350 h -5.82524 z M 106.79612 45.82524 h 3.88350 v 3.88350 h -3.88350 z M 116.50485 45.82524 h 1.94175 v 3.88350 h -1.94175 z M 120.38835 45.82524 h 9.70874 v 3.88350 h -9.70874 z M 132.03883 45.82524 h 7.76699 v 3.88350 h -7.76699 z M 141.74757 45.82524 h 1.94175 v 3.88350 h -1.94175 z M 145.63107 45.82524 h 7.76699 v 3.88350 h -7.76699 z M 161.16505 45.82524 h 1.94175 v 3.88350 h -1.94175 z M 165.04854 45.82524 h 13.59223 v 3.88350 h -13.59223 z M 180.58252 45.82524 h 1.94175 v 3.88350 h -1.94175 z M 188.34951 45.82524 h 1.94175 v 3.88350 h -1.94175 z M 192.23301 45.82524 h 1.94175 v 3.88350 h -1.94175 z M 198.05825 45.82524 h 1.94175 v 3.88350 h -1.94175 z M 0.00000 49.70874 h 15.53398 v 3.88350 h -15.53398 z M 17.47573 49.70874 h 1.94175 v 3.88350 h -1.94175 z M 21.35922 49.70874 h 1.94175 v 3.88350 h -1.94175 z M 25.24272 49.70874 h 1.94175 v 3.88350 h -1.94175 z M 33.00971 49.70874 h 3.88350 v 3.88350 h -3.88350 z M 38.83495 49.70874 h 1.94175 v 3.88350 h -1.94175 z M 44.66019 49.70874 h 5.82524 v 3.88350 h -5.82524 z M 52.42718 49.70874 h 7.76699 v 3.88350 h -7.76699 z M 66.01942 49.70874 h 1.94175 v 3.88350 h -1.94175 z M 71.84466 49.70874 h 3.88350 v 3.88350 h -3.88350 z M 81.55340 49.70874 h 3.88350 v 3.88350 h -3.88350 z M 89.32039 49.70874 h 1.94175 v 3.88350 h -1.94175 z M 99.02913 49.70874 h 1.94175 v 3.88350 h -1.94175 z M 108.73786 49.70874 h 1.94175 v 3.88350 h -1.94175 z M 112.62136 49.70874 h 5.82524 v 3.88350 h -5.82524 z M 120.38835 49.70874 h 5.82524 v 3.88350 h -5.82524 z M 132.03883 49.70874 h 3.88350 v 3.88350 h -3.88350 z M 137.86408 49.70874 h 1.94175 v 3.88350 h -1.94175 z M 143.68932 49.70874 h 5.82524 v 3.88350 h -5.82524 z M 151.45631 49.70874 h 7.76699 v 3.88350 h -7.76699 z M 165.04854 49.70874 h 13.59223 v 3.88350 h -13.59223 z M 180.58252 49.70874 h 1.94175 v 3.88350 h -1.94175 z M 188.34951 49.70874 h 1.94175 v 3.88350 h -1.94175 z M 192.23301 49.70874 h 1.94175 v 3.88350 h -1.94175 z M 198.05825 49.70874 h 1.94175 v 3.88350 h -1.94175 z " style="fill: #000000"/><text style="fill: #000000; font-family: &quot;monospace&quot;; font-size: 16.00000px" x="0.00000" y="0.00000"></text></svg>