<svg viewBox="0.00000 0.00000 200.00000 30.00000" xmlns="http://www.w3.org/2000/svg"><path d="M 0.00000 1.40777 h 15.53398 v 3.88350 h -15.53398 z M 17.47573 1.40777 h 1.94175 v 3.88350 h -1.94175 z M 21.35922 1.40777 h 1.94175 v 3.88350 h -1.94175 z M 25.24272 1.40777 h 1.94175 v 3.88350 h -1.94175 z M 33.00971 1.40777 h 7.76699 v 3.88350 h -7.76699 z M 42.71845 1.40777 h 1.94175 v 3.88350 h -1.94175 z M 46.60194 1.40777 h 1.94175 v 3.88350 h -1.94175 z M 50.48544 1.40777 h 7.76699 v 3.88350 h -7.76699 z M 66.01942 1.40777 h 3.88350 v 3.88350 h -3.88350 z M 71.84466 1.40777 h 1.94175 v 3.88350 h -1.94175 z M 75.72816 1.40777 h 1.94175 v 3.88350 h -1.94175 z M 83.49515 1.40777 h 3.88350 v 3.88350 h -3.88350 z M 99.02913 1.40777 h 5.82524 v 3.88350 h -5.82524 z M 106.79612 1.40777 h 5.82524 v 3.88350 h -5.82524 z M 114.56311 1.40777 h 3.88350 v 3.88350 h -3.88350 z M 122.33010 1.40777 h 3.88350 v 3.88350 h -3.88350 z M 132.03883 1.40777 h 7.76699 v 3.88350 h -7.76699 z M 141.74757 1.40777 h 1.94175 v 3.88350 h -1.94175 z M 145.63107 1.40777 h 1.94175 v 3.88350 h -1.94175 z M 149.51456 1.40777 h 7.76699 v 3.88350 h -7.76699 z M 165.04854 1.40777 h 13.59223 v 3.88350 h -13.59223 z M 180.58252 1.40777 h 1.94175 v 3.88350 h -1.94175 z M 188.34951 1.40777 h 1.94175 v 3.88350 h -1.94175 z M 192.23301 1.40777 h 1.94175 v 3.88350 h -1.94175 z M 198.05825 1.40777 h 1.94175 v 3.88350 h -1.94175 z M 0.00000 5.29126 h 15.53398 v 3.88350 h -15.53398 z M 17.47573 5.29126 h 1.94175 v 3.88350 h -1.94175 z M 21.35922 5.29126 h 1.94175 v 3.88350 h -1.94175 z M 25.24272 5.29126 h 1.94175 v 3.88350 h -1.94175 z M 33.00971 5.29126 h 9.70874 v 3.88350 h -9.70874 z M 44.66019 5.29126 h 1.94175 v 3.88350 h -1.94175 z M 48.54369 5.29126 h 1.94175 v 3.88350 h -1.94175 z M 56.31068 5.29126 h 3.88350 v 3.88350 h -3.88350 z M 66.01942 5.29126 h 3.88350 v 3.88350 h -3.88350 z M 71.84466 5.29126 h 1.94175 v 3.88350 h -1.94175 z M 81.55340 5.29126 h 5.82524 v 3.88350 h -5.82524 z M 93.20388 5.29126 h 1.94175 v 3.88350 h -1.94175 z M 99.02913 5.29126 h 7.76699 v 3.88350 h -7.76699 z M 108.73786 5.29126 h 1.94175 v 3.88350 h -1.94175 z M 116.50485 5.29126 h 1.94175 v 3.88350 h -1.94175 z M 120.38835 5.29126 h 1.94175 v 3.88350 h -1.94175 z M 132.03883 5.29126 h 7.76699 v 3.88350 h -7.76699 z M 141.74757 5.29126 h 1.94175 v 3.88350 h -1.94175 z M 145.63107 5.29126 h 1.94175 v 3.88350 h -1.94175 z M 151.45631 5.29126 h 1.94175 v 3.88350 h -1.94175 z M 165.04854 5.29126 h 13.59223 v 3.88350 h -13.59223 z M 180.58252 5.29126 h 1.94175 v 3.88350 h -1.94175 z M 188.34951 5.29126 h 1.94175 v 3.88350 h -1.94175 z M 192.23301 5.29126 h 1.94175 v 3.88350 h -1.94175 z M 198.05825 5.29126 h 1.94175 v 3.88350 h -1.94175 z M 0.00000 9.17476 h 15.53398 v 3.88350 h -15.53398 z M 17.47573 9.17476 h 1.94175 v 3.88350 h -1.94175 z M 21.35922 9.17476 h 1.94175 v 3.88350 h -1.94175 z M 25.24272 9.17476 h 1.94175 v 3.88350 h -1.94175 z M 33.00971 9.17476 h 5.82524 v 3.88350 h -5.82524 z M 40.77670 9.17476 h 1.94175 v 3.88350 h -1.94175 z M 44.66019 9.17476 h 1.94175 v 3.88350 h -1.94175 z M 48.54369 9.17476 h 11.65049 v 3.88350 h -11.65049 z M 66.01942 9.17476 h 1.94175 v 3.88350 h -1.94175 z M 69.90291 9.17476 h 3.88350 v 3.88350 h -3.88350 z M 77.66990 9.17476 h 3.88350 v 3.88350 h -3.88350 z M 85.43689 9.17476 h 7.76699 v 3.88350 h -7.76699 z M 99.02913 9.17476 h 3.88350 v 3.88350 h -3.88350 z M 108.73786 9.17476 h 9.70874 v 3.88350 h -9.70874 z M 122.33010 9.17476 h 1.94175 v 3.88350 h -1.94175 z M 128.15534 9.17476 h 1.94175 v 3.88350 h -1.94175 z M 132.03883 9.17476 h 3.88350 v 3.88350 h -3.88350 z M 137.86408 9.17476 h 1.94175 v 3.88350 h -1.94175 z M 141.74757 9.17476 h 1.94175 v 3.88350 h -1.94175 z M 149.51456 9.17476 h 9.70874 v 3.88350 h -9.70874 z M 165.04854 9.17476 h 13.59223 v 3.88350 h -13.59223 z M 180.58252 9.17476 h 1.94175 v 3.88350 h -1.94175 z M 188.34951 9.17476 h 1.94175 v 3.88350 h -1.94175 z M 192.23301 9.17476 h 1.94175 v 3.88350 h -1.94175 z M 198.05825 9.17476 h 1.94175 v 3.88350 h -1.94175 z M 0.00000 13.05825 h 15.53398 v 3.88350 h -15.53398 z M 17.47573 13.05825 h 1.94175 v 3.88350 h -1.94175 z M 21.35922 13.05825 h 1.94175 v 3.88350 h -1.94175 z M 25.24272 13.05825 h 1.94175 v 3.88350 h -1.94175 z M 33.00971 13.05825 h 1.94175 v 3.88350 h -1.94175 z M 36.89320 13.05825 h 1.94175 v 3.88350 h -1.94175 z M 40.77670 13.05825 h 7.76699 v 3.88350 h -7.76699 z M 52.42718 13.05825 h 7.76699 v 3.88350 h -7.76699 z M 66.01942 13.05825 h 3.88350 v 3.88350 h -3.88350 z M 75.72816 13.05825 h 1.94175 v 3.88350 h -1.94175 z M 83.49515 13.05825 h 1.94175 v 3.88350 h -1.94175 z M 89.32039 13.05825 h 3.88350 v 3.88350 h -3.88350 z M 99.02913 13.05825 h 3.88350 v 3.88350 h -3.88350 z M 110.67961 13.05825 h 3.88350 v 3.88350 h -3.88350 z M 116.50485 13.05825 h 1.94175 v 3.88350 h -1.94175 z M 128.15534 13.05825 h 1.94175 v 3.88350 h -1.94175 z M 132.03883 13.05825 h 1.94175 v 3.88350 h -1.94175 z M 135.92233 13.05825 h 1.94175 v 3.88350 h -1.94175 z M 139.80583 13.05825 h 7.76699 v 3.88350 h -7.76699 z M 151.45631 13.05825 h 7.76699 v 3.88350 h -7.76699 z M 165.04854 13.05825 h 13.59223 v 3.88350 h -13.59223 z M 180.58252 13.05825 h 1.94175 v 3.88350 h -1.94175 z M 188.34951 13.05825 h 1.94175 v 3.88350 h -1.94175 z M 192.23301 13.05825 h 1.94175 v 3.88350 h -1.94175 z M 198.05825 13.05825 h 1.94175 v 3.88350 h -1.94175 z M 0.00000 16.94175 h 15.53398 v 3.88350 h -15.53398 z M 17.47573 16.94175 h 1.94175 v 3.88350 h -1.94175 z M 21.35922 16.94175 h 1.94175 v 3.88350 h -1.94175 z M 25.24272 16.94175 h 1.94175 v 3.88350 h -1.94175 z M 33.00971 16.94175 h 3.88350 v 3.88350 h -3.88350 z M 38.83495 16.94175 h 1.94175 v 3.88350 h -1.94175 z M 42.71845 16.94175 h 5.82524 v 3.88350 h -5.82524 z M 56.31068 16.94175 h 1.94175 v 3.88350 h -1.94175 z M 66.01942 16.94175 h 5.82524 v 3.88350 h -5.82524 z M 75.72816 16.94175 h 3.88350 v 3.88350 h -3.88350 z M 87.37864 16.94175 h 5.82524 v 3.88350 h -5.82524 z M 95.14563 16.94175 h 1.94175 v 3.88350 h -1.94175 z M 99.02913 16.94175 h 3.88350 v 3.88350 h -3.88350 z M 106.79612 16.94175 h 1.94175 v 3.88350 h -1.94175 z M 112.62136 16.94175 h 7.76699 v 3.88350 h -7.76699 z M 126.21359 16.94175 h 3.88350 v 3.88350 h -3.88350 z M 132.03883 16.94175 h 7.76699 v 3.88350 h -7.76699 z M 141.74757 16.94175 h 1.94175 v 3.88350 h -1.94175 z M 145.63107 16.94175 h 5.82524 v 3.88350 h -5.82524 z M 155.33981 16.94175 h 5.82524 v 3.88350 h -5.82524 z M 165.04854 16.94175 h 13.59223 v 3.88350 h -13.59223 z M 180.58252 16.94175 h 1.94175 v 3.88350 h -1.94175 z M 188.34951 16.94175 h 1.94175 v 3.88350 h -1.94175 z M 192.23301 16.94175 h 1.94175 v 3.88350 h -1.94175 z M 198.05825 16.94175 h 1.94175 v 3.88350 h -1.94175 z M 0.00000 20.82524 h 15.53398 v 3.88350 h -15.53398 z M 17.47573 20.82524 h 1.94175 v 3.88350 h -1.94175 z M 21.35922 20.82524 h 1.94175 v 3.88350 h -1.94175 z M 25.24272 20.82524 h 1.94175 v 3.88350 h -1.94175 z M 33.00971 20.82524 h 7.76699 v 3.88350 h -7.76699 z M 42.71845 20.82524 h 1.94175 v 3.88350 h -1.94175 z M 46.60194 20.82524 h 7.76699 v 3.88350 h -7.76699 z M 56.31068 20.82524 h 1.94175 v 3.88350 h -1.94175 z M 66.01942 20.82524 h 1.94175 v 3.88350 h -1.94175 z M 71.84466 20.82524 h 9.70874 v 3.88350 h -9.70874 z M 83.49515 20.82524 h 3.88350 v 3.88350 h -3.88350 z M 95.14563 20.82524 h 1.94175 v 3.88350 h -1.94175 z M 99.02913 20.82524 h 5.82524 v 3.88350 h -5.82524 z M 106.79612 20.82524 h 3.88350 v 3.88350 h -3.88350 z M 116.50485 20.82524 h 1.94175 v 3.88350 h -1.94175 z M 120.38835 20.82524 h 9.70874 v 3.88350 h -9.70874 z M 132.03883 20.82524 h 7.76699 v 3.88350 h -7.76699 z M 141.74757 20.82524 h 1.94175 v 3.88350 h -1.94175 z M 145.63107 20.82524 h 7.76699 v 3.88350 h -7.76699 z M 161.16505 20.82524 h 1.94175 v 3.88350 h -1.94175 z M 165.04854 20.82524 h 13.59223 v 3.88350 h -13.59223 z M 180.58252 20.82524 h 1.94175 v 3.88350 h -1.94175 z M 188.34951 20.82524 h 1.94175 v 3.88350 h -1.94175 z M 192.23301 20.82524 h 1.94175 v 3.88350 h -1.94175 z M 198.05825 20.82524 h 1.94175 v 3.88350 h -1.94175 z M 0.00000 24.70874 h 15.53398 v 3.88350 h -15.53398 z M 17.47573 24.70874 h 1.94175 v 3.88350 h -1.94175 z M 21.35922 24.70874 h 1.94175 v 3.88350 h -1.94175 z M 25.24272 24.70874 h 1.94175 v 3.88350 h -1.94175 z M 33.00971 24.70874 h 3.88350 v 3.88350 h -3.88350 z M 38.83495 24.70874 h 1.94175 v 3.88350 h -1.94175 z M 44.66019 24.70874 h 5.82524 v 3.88350 h -5.82524 z M 52.42718 24.70874 h 7.76699 v 3.88350 h -7.76699 z M 66.01942 24.70874 h 1.94175 v 3.88350 h -1.94175 z M 71.84466 24.70874 h 3.88350 v 3.88350 h -3.88350 z M 81.55340 24.70874 h 3.88350 v 3.88350 h -3.88350 z M 89.32039 24.70874 h 1.94175 v 3.88350 h -1.94175 z M 99.02913 24.70874 h 1.94175 v 3.88350 h -1.94175 z M 108.73786 24.70874 h 1.94175 v 3.88350 h -1.94175 z M 112.62136 24.70874 h 5.82524 v 3.88350 h -5.82524 z M 120.38835 24.70874 h 5.82524 v 3.88350 h -5.82524 z M 132.03883 24.70874 h 3.88350 v 3.88350 h -3.88350 z M 137.86408 24.70874 h 1.94175 v 3.88350 h -1.94175 z M 143.68932 24.70874 h 5.82524 v 3.88350 h -5.82524 z M 151.45631 24.70874 h 7.76699 v 3.88350 h -7.76699 z M 165.04854 24.70874 h 13.59223 v 3.88350 h -13.59223 z M 180.58252 24.70874 h 1.94175 v 3.88350 h -1.94175 z M 188.34951 24.70874 h 1.94175 v 3.88350 h -1.94175 z M 192.23301 24.70874 h 1.94175 v 3.88350 h -1.94175 z M 198.05825 24.70874 h 1.94175 v 3.88350 h -1.94175 z " style="fill: #000000"/><text style="fill: #000000; font-family: &quot;monospace&quot;; font-size: 6.00000px" x="0.00000" y="0.00000"></text></svg>