<svg viewBox="0.00000 0.00000 200.00000 60.00000" xmlns="http://www.w3.org/2000/svg"><path d="M 0.00000 0.00000 h 1.94175 v 27.00000 h -1.94175 z M 3.88350 13.50000 h 1.94175 v 13.50000 h -1.94175 z M 7.76699 0.00000 h 1.94175 v 27.00000 h -1.94175 z M 11.65049 13.50000 h 1.94175 v 13.50000 h -1.94175 z M 15.53398 0.00000 h 1.94175 v 27.00000 h -1.94175 z M 19.41748 13.50000 h 1.94175 v 13.50000 h -1.94175 z M 23.30097 13.50000 h 1.94175 v 13.50000 h -1.94175 z M 27.18447 0.00000 h 1.94175 v 27.00000 h -1.94175 z M 31.06796 13.50000 h 1.94175 v 13.50000 h -1.94175 z M 34.95146 0.00000 h 1.94175 v 27.00000 h -1.94175 z M 38.83495 13.50000 h 1.94175 v 13.50000 h -1.94175 z M 42.71845 13.50000 h 1.94175 v 13.50000 h -1.94175 z M 46.60194 0.00000 h 1.94175 v 27.00000 h -1.94175 z M 50.48544 13.50000 h 1.94175 v 13.50000 h -1.94175 z M 54.36893 0.00000 h 1.94175 v 27.00000 h -1.94175 z M 58.25243 13.50000 h 1.94175 v 13.50000 h -1.94175 z M 62.13592 13.50000 h 1.94175 v 13.50000 h -1.94175 z M 66.01942 0.00000 h 1.94175 v 27.00000 h -1.94175 z M 69.90291 13.50000 h 1.94175 v 13.50000 h -1.94175 z M 73.78641 0.00000 h 1.94175 v 27.00000 h -1.94175 z M 77.66990 13.50000 h 1.94175 v 13.50000 h -1.94175 z M 81.55340 13.50000 h 1.94175 v 13.50000 h -1.94175 z M 85.43689 0.00000 h 1.94175 v 27.00000 h -1.94175 z M 89.32039 13.50000 h 1.94175 v 13.50000 h -1.94175 z M 93.20388 0.00000 h 1.94175 v 27.00000 h -1.94175 z M 97.08738 13.50000 h 1.94175 v 13.50000 h -1.94175 z M 100.97087 13.50000 h 1.94175 v 13.50000 h -1.94175 z M 104.85437 13.50000 h 1.94175 v 13.50000 h -1.94175 z M 108.73786 13.50000 h 1.94175 v 13.50000 h -1.94175 z M 112.62136 0.00000 h 1.94175 v 27.00000 h -1.94175 z M 116.50485 0.00000 h 1.94175 v 27.00000 h -1.94175 z M 120.38835 13.50000 h 1.94175 v 13.50000 h -1.94175 z M 124.27184 13.50000 h 1.94175 v 13.50000 h -1.94175 z M 128.15534 0.00000 h 1.94175 v 27.00000 h -1.94175 z M 132.03883 13.50000 h 1.94175 v 13.50000 h -1.94175 z M 135.92233 0.00000 h 1.94175 v 27.00000 h -1.94175 z M 139.80583 13.50000 h 1.94175 v 13.50000 h -1.94175 z M 143.68932 13.50000 h 1.94175 v 13.50000 h -1.94175 z M 147.57282 0.00000 h 1.94175 v 27.00000 h -1.94175 z M 151.45631 0.00000 h 1.94175 v 27.00000 h -1.94175 z M 155.33981 13.50000 h 1.94175 v 13.50000 h -1.94175 z M 159.22330 0.00000 h 1.94175 v 27.00000 h -1.94175 z M 163.10680 13.50000 h 1.94175 v 13.50000 h -1.94175 z M 166.99029 13.50000 h 1.94175 v 13.50000 h -1.94175 z M 170.87379 13.50000 h 1.94175 v 13.50000 h -1.94175 z M 174.75728 0.00000 h 1.94175 v 27.00000 h -1.94175 z M 178.64078 13.50000 h 1.94175 v 13.50000 h -1.94175 z M 182.52427 13.50000 h 1.94175 v 13.50000 h -1.94175 z M 186.40777 0.00000 h 1.94175 v 27.00000 h -1.94175 z M 190.29126 13.50000 h 1.94175 v 13.50000 h -1.94175 z M 194.17476 0.00000 h 1.94175 v 27.00000 h -1.94175 z M 198.05825 0.00000 h 1.94175 v 27.00000 h -1.94175 z " style="fill: #000000"/><text style="fill: #000000; font-family: &quot;monospace&quot;; font-size: 30.00000px" x="0.00000" y="0.00000"><tspan style="text-anchor: middle" x="100.00000" y="52.50000">55555-1237</tspan></text></svg>