<svg viewBox="0.00000 0.00000 200.00000 80.00000" xmlns="http://www.w3.org/2000/svg"><path d="M 60.00000 0.00000 h 26.66667 v 3.80952 h -26.66667 z M 94.28571 0.00000 h 3.80952 v 3.80952 h -3.80952 z M 101.90476 0.00000 h 7.61905 v 3.80952 h -7.61905 z M 113.33333 0.00000 h 26.66667 v 3.80952 h -26.66667 z M 60.00000 3.80952 h 3.80952 v 3.80952 h -3.80952 z M 82.85714 3.80952 h 3.80952 v 3.80952 h -3.80952 z M 94.28571 3.80952 h 11.42857 v 3.80952 h -11.42857 z M 113.33333 3.80952 h 3.80952 v 3.80952 h -3.80952 z M 136.19048 3.80952 h 3.80952 v 3.80952 h -3.80952 z M 60.00000 7.61905 h 3.80952 v 3.80952 h -3.80952 z M 67.61905 7.61905 h 11.42857 v 3.80952 h -11.42857 z M 82.85714 7.61905 h 3.80952 v 3.80952 h -3.80952 z M 90.47619 7.61905 h 7.61905 v 3.80952 h -7.61905 z M 101.90476 7.61905 h 7.61905 v 3.80952 h -7.61905 z M 113.33333 7.61905 h 3.80952 v 3.80952 h -3.80952 z M 120.95238 7.61905 h 11.42857 v 3.80952 h -11.42857 z M 136.19048 7.61905 h 3.80952 v 3.80952 h -3.80952 z M 60.00000 11.42857 h 3.80952 v 3.80952 h -3.80952 z M 67.61905 11.42857 h 11.42857 v 3.80952 h -11.42857 z M 82.85714 11.42857 h 3.80952 v 3.80952 h -3.80952 z M 94.28571 11.42857 h 3.80952 v 3.80952 h -3.80952 z M 101.90476 11.42857 h 3.80952 v 3.80952 h -3.80952 z M 113.33333 11.42857 h 3.80952 v 3.80952 h -3.80952 z M 120.95238 11.42857 h 11.42857 v 3.80952 h -11.42857 z M 136.19048 11.42857 h 3.80952 v 3.80952 h -3.80952 z M 60.00000 15.23810 h 3.80952 v 3.80952 h -3.80952 z M 67.61905 15.23810 h 11.42857 v 3.80952 h -11.42857 z M 82.85714 15.23810 h 3.80952 v 3.80952 h -3.80952 z M 98.09524 15.23810 h 3.80952 v 3.80952 h -3.80952 z M 105.71429 15.23810 h 3.80952 v 3.80952 h -3.80952 z M 113.33333 15.23810 h 3.80952 v 3.80952 h -3.80952 z M 120.95238 15.23810 h 11.42857 v 3.80952 h -11.42857 z M 136.19048 15.23810 h 3.80952 v 3.80952 h -3.80952 z M 60.00000 19.04762 h 3.80952 v 3.80952 h -3.80952 z M 82.85714 19.04762 h 3.80952 v 3.80952 h -3.80952 z M 105.71429 19.04762 h 3.80952 v 3.80952 h -3.80952 z M 113.33333 19.04762 h 3.80952 v 3.80952 h -3.80952 z M 136.19048 19.04762 h 3.80952 v 3.80952 h -3.80952 z M 60.00000 22.85714 h 26.66667 v 3.80952 h -26.66667 z M 90.47619 22.85714 h 3.80952 v 3.80952 h -3.80952 z M 98.09524 22.85714 h 3.80952 v 3.80952 h -3.80952 z M 105.71429 22.85714 h 3.80952 v 3.80952 h -3.80952 z M 113.33333 22.85714 h 26.66667 v 3.80952 h -26.66667 z M 90.47619 26.66667 h 7.61905 v 3.80952 h -7.61905 z M 101.90476 26.66667 h 7.61905 v 3.80952 h -7.61905 z M 60.00000 30.47619 h 11.42857 v 3.80952 h -11.42857 z M 75.23810 30.47619 h 30.47619 v 3.80952 h -30.47619 z M 109.52381 30.47619 h 7.61905 v 3.80952 h -7.61905 z M 128.57143 30.47619 h 3.80952 v 3.80952 h -3.80952 z M 60.00000 34.28571 h 11.42857 v 3.80952 h -11.42857 z M 86.66667 34.28571 h 7.61905 v 3.80952 h -7.61905 z M 98.09524 34.28571 h 3.80952 v 3.80952 h -3.80952 z M 113.33333 34.28571 h 7.61905 v 3.80952 h -7.61905 z M 124.76190 34.28571 h 3.80952 v 3.80952 h -3.80952 z M 63.80952 38.09524 h 3.80952 v 3.80952 h -3.80952 z M 75.23810 38.09524 h 11.42857 v 3.80952 h -11.42857 z M 90.47619 38.09524 h 11.42857 v 3.80952 h -11.42857 z M 105.71429 38.09524 h 3.80952 v 3.80952 h -3.80952 z M 120.95238 38.09524 h 3.80952 v 3.80952 h -3.80952 z M 132.38095 38.09524 h 7.61905 v 3.80952 h -7.61905 z M 60.00000 41.90476 h 3.80952 v 3.80952 h -3.80952 z M 67.61905 41.90476 h 7.61905 v 3.80952 h -7.61905 z M 79.04762 41.90476 h 3.80952 v 3.80952 h -3.80952 z M 90.47619 41.90476 h 3.80952 v 3.80952 h -3.80952 z M 113.33333 41.90476 h 3.80952 v 3.80952 h -3.80952 z M 124.76190 41.90476 h 3.80952 v 3.80952 h -3.80952 z M 60.00000 45.71429 h 3.80952 v 3.80952 h -3.80952 z M 67.61905 45.71429 h 7.61905 v 3.80952 h -7.61905 z M 82.85714 45.71429 h 19.04762 v 3.80952 h -19.04762 z M 105.71429 45.71429 h 3.80952 v 3.80952 h -3.80952 z M 113.33333 45.71429 h 11.42857 v 3.80952 h -11.42857 z M 136.19048 45.71429 h 3.80952 v 3.80952 h -3.80952 z M 90.47619 49.52381 h 15.23810 v 3.80952 h -15.23810 z M 109.52381 49.52381 h 3.80952 v 3.80952 h -3.80952 z M 117.14286 49.52381 h 7.61905 v 3.80952 h -7.61905 z M 128.57143 49.52381 h 3.80952 v 3.80952 h -3.80952 z M 60.00000 53.33333 h 26.66667 v 3.80952 h -26.66667 z M 90.47619 53.33333 h 15.23810 v 3.80952 h -15.23810 z M 109.52381 53.33333 h 30.47619 v 3.80952 h -30.47619 z M 60.00000 57.14286 h 3.80952 v 3.80952 h -3.80952 z M 82.85714 57.14286 h 3.80952 v 3.80952 h -3.80952 z M 90.47619 57.14286 h 3.80952 v 3.80952 h -3.80952 z M 101.90476 57.14286 h 11.42857 v 3.80952 h -11.42857 z M 117.14286 57.14286 h 3.80952 v 3.80952 h -3.80952 z M 136.19048 57.14286 h 3.80952 v 3.80952 h -3.80952 z M 60.00000 60.95238 h 3.80952 v 3.80952 h -3.80952 z M 67.61905 60.95238 h 11.42857 v 3.80952 h -11.42857 z M 82.85714 60.95238 h 3.80952 v 3.80952 h -3.80952 z M 90.47619 60.95238 h 15.23810 v 3.80952 h -15.23810 z M 109.52381 60.95238 h 15.23810 v 3.80952 h -15.23810 z M 128.57143 60.95238 h 11.42857 v 3.80952 h -11.42857 z M 60.00000 64.76190 h 3.80952 v 3.80952 h -3.80952 z M 67.61905 64.76190 h 11.42857 v 3.80952 h -11.42857 z M 82.85714 64.76190 h 3.80952 v 3.80952 h -3.80952 z M 94.28571 64.76190 h 7.61905 v 3.80952 h -7.61905 z M 113.33333 64.76190 h 15.23810 v 3.80952 h -15.23810 z M 132.38095 64.76190 h 3.80952 v 3.80952 h -3.80952 z M 60.00000 68.57143 h 3.80952 v 3.80952 h -3.80952 z M 67.61905 68.57143 h 11.42857 v 3.80952 h -11.42857 z M 82.85714 68.57143 h 3.80952 v 3.80952 h -3.80952 z M 90.47619 68.57143 h 3.80952 v 3.80952 h -3.80952 z M 98.09524 68.57143 h 3.80952 v 3.80952 h -3.80952 z M 105.71429 68.57143 h 3.80952 v 3.80952 h -3.80952 z M 117.14286 68.57143 h 11.42857 v 3.80952 h -11.42857 z M 136.19048 68.57143 h 3.80952 v 3.80952 h -3.80952 z M 60.00000 72.38095 h 3.80952 v 3.80952 h -3.80952 z M 82.85714 72.38095 h 3.80952 v 3.80952 h -3.80952 z M 90.47619 72.38095 h 3.80952 v 3.80952 h -3.80952 z M 113.33333 72.38095 h 3.80952 v 3.80952 h -3.80952 z M 120.95238 72.38095 h 3.80952 v 3.80952 h -3.80952 z M 132.38095 72.38095 h 3.80952 v 3.80952 h -3.80952 z M 60.00000 76.19048 h 26.66667 v 3.80952 h -26.66667 z M 90.47619 76.19048 h 11.42857 v 3.80952 h -11.42857 z M 105.71429 76.19048 h 3.80952 v 3.80952 h -3.80952 z M 113.33333 76.19048 h 7.61905 v 3.80952 h -7.61905 z M 132.38095 76.19048 h 7.61905 v 3.80952 h -7.61905 z " style="fill: #000000"/><text style="fill: #000000; font-family: &quot;monospace&quot;; font-size: 16.00000px" x="0.00000" y="0.00000"></text></svg>