<svg viewBox="0.00000 0.00000 200.00000 50.00000" xmlns="http://www.w3.org/2000/svg"><path d="M 0.00000 0.00000 h 3.38983 v 11.37500 h -3.38983 z M 6.77966 0.00000 h 3.38983 v 17.50000 h -3.38983 z M 13.55932 6.12500 h 3.38983 v 5.25000 h -3.38983 z M 20.33898 0.00000 h 3.38983 v 11.37500 h -3.38983 z M 27.11864 6.12500 h 3.38983 v 11.37500 h -3.38983 z M 33.89831 0.00000 h 3.38983 v 17.50000 h -3.38983 z M 40.67797 6.12500 h 3.38983 v 5.25000 h -3.38983 z M 47.45763 6.12500 h 3.38983 v 11.37500 h -3.38983 z M 54.23729 0.00000 h 3.38983 v 11.37500 h -3.38983 z M 61.01695 6.12500 h 3.38983 v 11.37500 h -3.38983 z M 67.79661 6.12500 h 3.38983 v 5.25000 h -3.38983 z M 74.57627 0.00000 h 3.38983 v 17.50000 h -3.38983 z M 81.35593 0.00000 h 3.38983 v 11.37500 h -3.38983 z M 88.13559 0.00000 h 3.38983 v 17.50000 h -3.38983 z M 94.91525 6.12500 h 3.38983 v 5.25000 h -3.38983 z M 101.69492 0.00000 h 3.38983 v 17.50000 h -3.38983 z M 108.47458 6.12500 h 3.38983 v 5.25000 h -3.38983 z M 115.25424 6.12500 h 3.38983 v 5.25000 h -3.38983 z M 122.03390 0.00000 h 3.38983 v 11.37500 h -3.38983 z M 128.81356 0.00000 h 3.38983 v 17.50000 h -3.38983 z M 135.59322 6.12500 h 3.38983 v 11.37500 h -3.38983 z M 142.37288 6.12500 h 3.38983 v 5.25000 h -3.38983 z M 149.15254 0.00000 h 3.38983 v 11.37500 h -3.38983 z M 155.93220 0.00000 h 3.38983 v 17.50000 h -3.38983 z M 162.71186 6.12500 h 3.38983 v 11.37500 h -3.38983 z M 169.49153 6.12500 h 3.38983 v 5.25000 h -3.38983 z M 176.27119 0.00000 h 3.38983 v 17.50000 h -3.38983 z M 183.05085 0.00000 h 3.38983 v 17.50000 h -3.38983 z M 189.83051 6.12500 h 3.38983 v 5.25000 h -3.38983 z M 196.61017 0.00000 h 3.38983 v 17.50000 h -3.38983 z " style="fill: #000000"/><text style="fill: #000000; font-family: &quot;monospace&quot;; font-size: 30.00000px" x="0.00000" y="0.00000"><tspan style="text-anchor: middle" x="100.00000" y="42.50000">RM4SCC</tspan></text></svg>