<svg viewBox="0.00000 0.00000 200.00000 80.00000" xmlns="http://www.w3.org/2000/svg"><path d="M 0.00000 0.00000 h 1.25000 v 60.00000 h -1.25000 z M 2.50000 0.00000 h 1.25000 v 60.00000 h -1.25000 z M 5.00000 0.00000 h 1.25000 v 60.00000 h -1.25000 z M 7.50000 0.00000 h 1.25000 v 60.00000 h -1.25000 z M 10.00000 0.00000 h 1.25000 v 60.00000 h -1.25000 z M 12.50000 0.00000 h 3.75000 v 60.00000 h -3.75000 z M 20.00000 0.00000 h 3.75000 v 60.00000 h -3.75000 z M 25.00000 0.00000 h 1.25000 v 60.00000 h -1.25000 z M 27.50000 0.00000 h 3.75000 v 60.00000 h -3.75000 z M 35.00000 0.00000 h 1.25000 v 60.00000 h -1.25000 z M 37.50000 0.00000 h 1.25000 v 60.00000 h -1.25000 z M 40.00000 0.00000 h 1.25000 v 60.00000 h -1.25000 z M 42.50000 0.00000 h 3.75000 v 60.00000 h -3.75000 z M 50.00000 0.00000 h 1.25000 v 60.00000 h -1.25000 z M 55.00000 0.00000 h 1.25000 v 60.00000 h -1.25000 z M 60.00000 0.00000 h 3.75000 v 60.00000 h -3.75000 z M 65.00000 0.00000 h 1.25000 v 60.00000 h -1.25000 z M 67.50000 0.00000 h 1.25000 v 60.00000 h -1.25000 z M 70.00000 0.00000 h 1.25000 v 60.00000 h -1.25000 z M 75.00000 0.00000 h 1.25000 v 60.00000 h -1.25000 z M 80.00000 0.00000 h 1.25000 v 60.00000 h -1.25000 z M 82.50000 0.00000 h 3.75000 v 60.00000 h -3.75000 z M 90.00000 0.00000 h 1.25000 v 60.00000 h -1.25000 z M 95.00000 0.00000 h 1.25000 v 60.00000 h -1.25000 z M 100.00000 0.00000 h 3.75000 v 60.00000 h -3.75000 z M 105.00000 0.00000 h 3.75000 v 60.00000 h -3.75000 z M 110.00000 0.00000 h 1.25000 v 60.00000 h -1.25000 z M 112.50000 0.00000 h 1.25000 v 60.00000 h -1.25000 z M 115.00000 0.00000 h 1.25000 v 60.00000 h -1.25000 z M 117.50000 0.00000 h 1.25000 v 60.00000 h -1.25000 z M 120.00000 0.00000 h 1.25000 v 60.00000 h -1.25000 z M 122.50000 0.00000 h 3.75000 v 60.00000 h -3.75000 z M 130.00000 0.00000 h 1.25000 v 60.00000 h -1.25000 z M 135.00000 0.00000 h 1.25000 v 60.00000 h -1.25000 z M 140.00000 0.00000 h 1.25000 v 60.00000 h -1.25000 z M 145.00000 0.00000 h 1.25000 v 60.00000 h -1.25000 z M 147.50000 0.00000 h 1.25000 v 60.00000 h -1.25000 z M 152.50000 0.00000 h 1.25000 v 60.00000 h -1.25000 z M 155.00000 0.00000 h 1.25000 v 60.00000 h -1.25000 z M 157.50000 0.00000 h 1.25000 v 60.00000 h -1.25000 z M 160.00000 0.00000 h 1.25000 v 60.00000 h -1.25000 z M 162.50000 0.00000 h 1.25000 v 60.00000 h -1.25000 z M 167.50000 0.00000 h 1.25000 v 60.00000 h -1.25000 z M 172.50000 0.00000 h 1.25000 v 60.00000 h -1.25000 z M 175.00000 0.00000 h 3.75000 v 60.00000 h -3.75000 z M 180.00000 0.00000 h 3.75000 v 60.00000 h -3.75000 z M 187.50000 0.00000 h 1.25000 v 60.00000 h -1.25000 z M 190.00000 0.00000 h 1.25000 v 60.00000 h -1.25000 z M 192.50000 0.00000 h 1.25000 v 60.00000 h -1.25000 z M 195.00000 0.00000 h 1.25000 v 60.00000 h -1.25000 z M 197.50000 0.00000 h 1.25000 v 60.00000 h -1.25000 z " style="fill: #000000"/><text style="fill: #000000; font-family: &quot;monospace&quot;; font-size: 16.00000px" x="0.00000" y="0.00000"><tspan style="text-anchor: middle" x="100.00000" y="76.00000">Telepen</tspan></text></svg>