<svg viewBox="0.00000 0.00000 100.00000 80.00000" xmlns="http://www.w3.org/2000/svg"><path d="M 16.00000 0.00000 h 1.33333 v 72.00000 h -1.33333 z M 18.66667 0.00000 h 1.33333 v 72.00000 h -1.33333 z M 25.33333 0.00000 h 1.33333 v 60.00000 h -1.33333 z M 28.00000 0.00000 h 1.33333 v 60.00000 h -1.33333 z M 30.66667 0.00000 h 2.66667 v 60.00000 h -2.66667 z M 37.33333 0.00000 h 1.33333 v 60.00000 h -1.33333 z M 41.33333 0.00000 h 4.00000 v 60.00000 h -4.00000 z M 46.66667 0.00000 h 1.33333 v 60.00000 h -1.33333 z M 49.33333 0.00000 h 5.33333 v 60.00000 h -5.33333 z M 56.00000 0.00000 h 1.33333 v 60.00000 h -1.33333 z M 60.00000 0.00000 h 2.66667 v 60.00000 h -2.66667 z M 64.00000 0.00000 h 2.66667 v 60.00000 h -2.66667 z M 69.33333 0.00000 h 2.66667 v 60.00000 h -2.66667 z M 74.66667 0.00000 h 1.33333 v 60.00000 h -1.33333 z M 77.33333 0.00000 h 1.33333 v 72.00000 h -1.33333 z M 80.00000 0.00000 h 1.33333 v 72.00000 h -1.33333 z M 82.66667 0.00000 h 1.33333 v 72.00000 h -1.33333 z " style="fill: #000000"/><text style="fill: #000000; font-family: &quot;monospace&quot;; font-size: 16.00000px" x="0.00000" y="0.00000"><tspan style="text-anchor: end" x="14.66667" y="76.00000">0</tspan><tspan style="text-anchor: middle" x="24.66667" y="76.00000">6</tspan><tspan style="text-anchor: middle" x="34.00000" y="76.00000">5</tspan><tspan style="text-anchor: middle" x="43.33333" y="76.00000">4</tspan><tspan style="text-anchor: middle" x="52.66667" y="76.00000">3</tspan><tspan style="text-anchor: middle" x="62.00000" y="76.00000">2</tspan><tspan style="text-anchor: middle" x="71.33333" y="76.00000">1</tspan><tspan style="text-anchor: start" x="85.33333" y="76.00000">7</tspan></text></svg>