<svg viewBox="0.00000 0.00000 200.00000 80.00000" xmlns="http://www.w3.org/2000/svg"><path d="M 16.00000 0.00000 h 3.29412 v 72.00000 h -3.29412 z M 22.58824 0.00000 h 3.29412 v 72.00000 h -3.29412 z M 39.05882 0.00000 h 3.29412 v 64.00000 h -3.29412 z M 45.64706 0.00000 h 3.29412 v 64.00000 h -3.29412 z M 52.23529 0.00000 h 6.58824 v 64.00000 h -6.58824 z M 68.70588 0.00000 h 3.29412 v 64.00000 h -3.29412 z M 78.58824 0.00000 h 9.88235 v 64.00000 h -9.88235 z M 91.76471 0.00000 h 3.29412 v 64.00000 h -3.29412 z M 98.35294 0.00000 h 13.17647 v 64.00000 h -13.17647 z M 114.82353 0.00000 h 3.29412 v 64.00000 h -3.29412 z M 124.70588 0.00000 h 6.58824 v 64.00000 h -6.58824 z M 134.58824 0.00000 h 6.58824 v 64.00000 h -6.58824 z M 147.76471 0.00000 h 6.58824 v 64.00000 h -6.58824 z M 160.94118 0.00000 h 3.29412 v 64.00000 h -3.29412 z M 167.52941 0.00000 h 3.29412 v 72.00000 h -3.29412 z M 174.11765 0.00000 h 3.29412 v 72.00000 h -3.29412 z M 180.70588 0.00000 h 3.29412 v 72.00000 h -3.29412 z " style="fill: #000000"/><text style="fill: #000000; font-family: &quot;monospace&quot;; font-size: 16.00000px" x="0.00000" y="0.00000"><tspan style="text-anchor: end" x="12.70588" y="76.00000">0</tspan><tspan style="text-anchor: middle" x="37.41176" y="76.00000">6</tspan><tspan style="text-anchor: middle" x="60.47059" y="76.00000">5</tspan><tspan style="text-anchor: middle" x="83.52941" y="76.00000">4</tspan><tspan style="text-anchor: middle" x="106.58824" y="76.00000">3</tspan><tspan style="text-anchor: middle" x="129.64706" y="76.00000">2</tspan><tspan style="text-anchor: middle" x="152.70588" y="76.00000">1</tspan><tspan style="text-anchor: start" x="187.29412" y="76.00000">7</tspan></text></svg>