<svg viewBox="0.00000 0.00000 200.00000 80.00000" xmlns="http://www.w3.org/2000/svg"><path d="M 0.00000 0.00000 h 3.92157 v 64.00000 h -3.92157 z M 7.84314 0.00000 h 3.92157 v 64.00000 h -3.92157 z M 27.45098 0.00000 h 3.92157 v 64.00000 h -3.92157 z M 35.29412 0.00000 h 3.92157 v 64.00000 h -3.92157 z M 43.13725 0.00000 h 7.84314 v 64.00000 h -7.84314 z M 62.74510 0.00000 h 3.92157 v 64.00000 h -3.92157 z M 74.50980 0.00000 h 11.76471 v 64.00000 h -11.76471 z M 90.19608 0.00000 h 3.92157 v 64.00000 h -3.92157 z M 98.03922 0.00000 h 15.68627 v 64.00000 h -15.68627 z M 117.64706 0.00000 h 3.92157 v 64.00000 h -3.92157 z M 129.41176 0.00000 h 7.84314 v 64.00000 h -7.84314 z M 141.17647 0.00000 h 7.84314 v 64.00000 h -7.84314 z M 156.86275 0.00000 h 7.84314 v 64.00000 h -7.84314 z M 172.54902 0.00000 h 3.92157 v 64.00000 h -3.92157 z M 180.39216 0.00000 h 3.92157 v 64.00000 h -3.92157 z M 188.23529 0.00000 h 3.92157 v 64.00000 h -3.92157 z M 196.07843 0.00000 h 3.92157 v 64.00000 h -3.92157 z " style="fill: #000000"/><text style="fill: #000000; font-family: &quot;monospace&quot;; font-size: 16.00000px" x="0.00000" y="0.00000"><tspan style="text-anchor: middle" x="100.00000" y="76.00000">06543217</tspan></text></svg>