<svg viewBox="0.00000 0.00000 200.00000 80.00000" xmlns="http://www.w3.org/2000/svg"><path d="M 16.00000 0.00000 h 1.76842 v 72.00000 h -1.76842 z M 19.53684 0.00000 h 1.76842 v 72.00000 h -1.76842 z M 26.61053 0.00000 h 1.76842 v 72.00000 h -1.76842 z M 30.14737 0.00000 h 3.53684 v 72.00000 h -3.53684 z M 35.45263 0.00000 h 3.53684 v 64.00000 h -3.53684 z M 40.75789 0.00000 h 5.30526 v 64.00000 h -5.30526 z M 47.83158 0.00000 h 5.30526 v 64.00000 h -5.30526 z M 54.90526 0.00000 h 3.53684 v 64.00000 h -3.53684 z M 60.21053 0.00000 h 1.76842 v 64.00000 h -1.76842 z M 63.74737 0.00000 h 7.07368 v 64.00000 h -7.07368 z M 72.58947 0.00000 h 3.53684 v 64.00000 h -3.53684 z M 81.43158 0.00000 h 1.76842 v 64.00000 h -1.76842 z M 84.96842 0.00000 h 1.76842 v 64.00000 h -1.76842 z M 92.04211 0.00000 h 3.53684 v 64.00000 h -3.53684 z M 97.34737 0.00000 h 1.76842 v 72.00000 h -1.76842 z M 100.88421 0.00000 h 1.76842 v 72.00000 h -1.76842 z M 104.42105 0.00000 h 1.76842 v 64.00000 h -1.76842 z M 113.26316 0.00000 h 1.76842 v 64.00000 h -1.76842 z M 116.80000 0.00000 h 3.53684 v 64.00000 h -3.53684 z M 122.10526 0.00000 h 3.53684 v 64.00000 h -3.53684 z M 129.17895 0.00000 h 3.53684 v 64.00000 h -3.53684 z M 136.25263 0.00000 h 3.53684 v 64.00000 h -3.53684 z M 141.55789 0.00000 h 5.30526 v 64.00000 h -5.30526 z M 150.40000 0.00000 h 1.76842 v 64.00000 h -1.76842 z M 153.93684 0.00000 h 5.30526 v 64.00000 h -5.30526 z M 161.01053 0.00000 h 1.76842 v 64.00000 h -1.76842 z M 166.31579 0.00000 h 1.76842 v 72.00000 h -1.76842 z M 171.62105 0.00000 h 1.76842 v 72.00000 h -1.76842 z M 178.69474 0.00000 h 1.76842 v 72.00000 h -1.76842 z M 182.23158 0.00000 h 1.76842 v 72.00000 h -1.76842 z " style="fill: #000000"/><text style="fill: #000000; font-family: &quot;monospace&quot;; font-size: 16.00000px" x="0.00000" y="0.00000"><tspan style="text-anchor: end" x="14.23158" y="76.00000">9</tspan><tspan style="text-anchor: middle" x="39.87368" y="76.00000">8</tspan><tspan style="text-anchor: middle" x="52.25263" y="76.00000">7</tspan><tspan style="text-anchor: middle" x="64.63158" y="76.00000">6</tspan><tspan style="text-anchor: middle" x="77.01053" y="76.00000">5</tspan><tspan style="text-anchor: middle" x="89.38947" y="76.00000">4</tspan><tspan style="text-anchor: middle" x="110.61053" y="76.00000">3</tspan><tspan style="text-anchor: middle" x="122.98947" y="76.00000">2</tspan><tspan style="text-anchor: middle" x="135.36842" y="76.00000">1</tspan><tspan style="text-anchor: middle" x="147.74737" y="76.00000">0</tspan><tspan style="text-anchor: middle" x="160.12632" y="76.00000">9</tspan><tspan style="text-anchor: start" x="185.76842" y="76.00000">8</tspan></text></svg>