<svg viewBox="0.00000 0.00000 200.00000 80.00000" xmlns="http://www.w3.org/2000/svg"><path d="M 0.00000 0.00000 h 2.10526 v 64.00000 h -2.10526 z M 4.21053 0.00000 h 2.10526 v 64.00000 h -2.10526 z M 12.63158 0.00000 h 2.10526 v 64.00000 h -2.10526 z M 16.84211 0.00000 h 4.21053 v 64.00000 h -4.21053 z M 23.15789 0.00000 h 4.21053 v 64.00000 h -4.21053 z M 29.47368 0.00000 h 6.31579 v 64.00000 h -6.31579 z M 37.89474 0.00000 h 6.31579 v 64.00000 h -6.31579 z M 46.31579 0.00000 h 4.21053 v 64.00000 h -4.21053 z M 52.63158 0.00000 h 2.10526 v 64.00000 h -2.10526 z M 56.84211 0.00000 h 8.42105 v 64.00000 h -8.42105 z M 67.36842 0.00000 h 4.21053 v 64.00000 h -4.21053 z M 77.89474 0.00000 h 2.10526 v 64.00000 h -2.10526 z M 82.10526 0.00000 h 2.10526 v 64.00000 h -2.10526 z M 90.52632 0.00000 h 4.21053 v 64.00000 h -4.21053 z M 96.84211 0.00000 h 2.10526 v 64.00000 h -2.10526 z M 101.05263 0.00000 h 2.10526 v 64.00000 h -2.10526 z M 105.26316 0.00000 h 2.10526 v 64.00000 h -2.10526 z M 115.78947 0.00000 h 2.10526 v 64.00000 h -2.10526 z M 120.00000 0.00000 h 4.21053 v 64.00000 h -4.21053 z M 126.31579 0.00000 h 4.21053 v 64.00000 h -4.21053 z M 134.73684 0.00000 h 4.21053 v 64.00000 h -4.21053 z M 143.15789 0.00000 h 4.21053 v 64.00000 h -4.21053 z M 149.47368 0.00000 h 6.31579 v 64.00000 h -6.31579 z M 160.00000 0.00000 h 2.10526 v 64.00000 h -2.10526 z M 164.21053 0.00000 h 6.31579 v 64.00000 h -6.31579 z M 172.63158 0.00000 h 2.10526 v 64.00000 h -2.10526 z M 178.94737 0.00000 h 2.10526 v 64.00000 h -2.10526 z M 185.26316 0.00000 h 2.10526 v 64.00000 h -2.10526 z M 193.68421 0.00000 h 2.10526 v 64.00000 h -2.10526 z M 197.89474 0.00000 h 2.10526 v 64.00000 h -2.10526 z " style="fill: #000000"/><text style="fill: #000000; font-family: &quot;monospace&quot;; font-size: 16.00000px" x="0.00000" y="0.00000"><tspan style="text-anchor: middle" x="100.00000" y="76.00000">987654321098</tspan></text></svg>